<svg width="221" height="149" viewBox="0 0 221 149" fill="none" xmlns="http://www.w3.org/2000/svg">
<g clip-path="url(#clip0_423_1946)">
<path d="M144.081 61.1422C143.598 61.2043 143.106 61.1713 142.639 61.0455C142.172 60.9197 141.742 60.7042 141.378 60.4141C141.014 60.1239 140.727 59.7663 140.535 59.3663C140.343 58.9663 140.252 58.5336 140.268 58.0988L129.197 54.3049L134.21 51.1074L143.954 55.2004C144.771 55.2727 145.531 55.61 146.088 56.1483C146.645 56.6866 146.962 57.3886 146.977 58.1211C146.993 58.8536 146.707 59.5658 146.173 60.1226C145.639 60.6795 144.895 61.0423 144.081 61.1423L144.081 61.1422Z" fill="#FFB7B7"/>
<path d="M137.754 58.4206L139.483 52.9833L139.398 52.9316L123.207 43.1233L109.211 30.5996L101.058 33.5045L101.593 35.8057L101.628 35.834L120.236 50.6977L120.254 50.7051L137.754 58.4206Z" fill="#E6E7E8"/>
<path d="M121.168 70.8399L96.1104 67.7076L98.3159 53.9961H116.764L121.168 70.8399Z" fill="#FFB6B6"/>
<path d="M78.5908 137.981L83.731 139.046L90.7841 121.873L83.1981 120.301L78.5908 137.981Z" fill="#FFB6B6"/>
<path d="M73.8086 145.361L77.4947 146.125L78.9614 143.158L79.8378 146.611L89.6143 148.637C90.083 148.734 90.5741 148.695 91.0162 148.525C91.4582 148.356 91.8279 148.065 92.0713 147.695C92.3147 147.325 92.4191 146.895 92.3693 146.468C92.3194 146.042 92.1179 145.64 91.7941 145.323L85.2399 138.896L86.0575 135.759L77.7317 134.494L73.8086 145.361Z" fill="#2F2E41"/>
<path d="M110.308 140.536H115.585L118.096 122.385H110.308V140.536Z" fill="#FFB6B6"/>
<path d="M107.521 148.689H111.306L111.981 145.503L113.711 148.689H123.748C124.23 148.689 124.698 148.552 125.086 148.297C125.473 148.043 125.759 147.685 125.903 147.276C126.046 146.866 126.038 146.426 125.881 146.021C125.725 145.615 125.426 145.265 125.03 145.021L117.015 140.084V136.863L108.584 137.312L107.521 148.689Z" fill="#2F2E41"/>
<path d="M95.7937 65.3809L120.299 63.6426C127.53 78.7065 122.932 102.754 117.375 129.825L109.493 130.734L108.882 87.2341L89.123 127.702L80.9082 127.327L95.7937 65.3809Z" fill="#2F2E41"/>
<path d="M110.057 25.7133V18.32C110.058 17.0186 109.771 15.7298 109.213 14.5273C108.655 13.3248 107.837 12.2321 106.805 11.3116C105.774 10.3911 104.549 9.66097 103.201 9.16279C101.853 8.66462 100.408 8.4082 98.9482 8.4082C97.4889 8.4082 96.0439 8.66462 94.6957 9.16279C93.3475 9.66097 92.1226 10.3911 91.091 11.3116C90.0593 12.2321 89.2412 13.3248 88.6832 14.5273C88.1253 15.7298 87.8384 17.0186 87.8392 18.32C85.8812 21.9585 87.1061 23.6884 87.8392 25.7133C87.8398 26.0659 87.9972 26.4039 88.2768 26.6532C88.5564 26.9025 88.9354 27.0429 89.3308 27.0434H108.565C108.96 27.043 109.34 26.9028 109.619 26.6534C109.899 26.4041 110.057 26.066 110.057 25.7133Z" fill="#2F2E41"/>
<path d="M101.69 26.9331C106.188 26.9331 109.835 23.6811 109.835 19.6697C109.835 15.6582 106.188 12.4062 101.69 12.4062C97.1915 12.4062 93.5449 15.6582 93.5449 19.6697C93.5449 23.6811 97.1915 26.9331 101.69 26.9331Z" fill="#FFB7B7"/>
<path d="M112.686 18.9109C112.683 16.8332 111.756 14.8413 110.109 13.3721C108.461 11.903 106.228 11.0766 103.898 11.0742H102.24C99.91 11.0766 97.6763 11.903 96.0289 13.3721C94.3815 14.8413 93.4548 16.8332 93.4521 18.9109V19.0588C94.694 19.8159 95.8729 19.9266 96.9563 19.0588L98.1514 16.0744L98.3904 19.0588H100.202L100.805 17.5531L100.926 19.0588C103.372 20.9168 107.998 20.0264 112.686 19.0588L112.686 18.9109Z" fill="#2F2E41"/>
<path d="M96.941 58.0048L117.678 57.3011L118.838 45.2028C119.732 42.9883 119.746 41.0855 118.881 39.5514C118.136 38.2904 116.886 37.3264 115.379 36.8521L110.841 31.9646C110.257 31.3364 109.524 30.8317 108.695 30.487C107.866 30.1423 106.961 29.9661 106.046 29.9712L94.2557 30.0431C93.9716 29.8908 92.2478 29.1095 88.848 30.4232C85.1605 31.8484 86.0168 36.7998 86.026 36.8495L86.0345 36.8961L86.075 36.9278L93.9173 42.8186L96.941 58.0048Z" fill="#E6E7E8"/>
<path d="M0.347928 148.999H208.568C208.66 148.999 208.749 148.967 208.814 148.909C208.879 148.85 208.916 148.771 208.916 148.689C208.916 148.607 208.879 148.528 208.814 148.47C208.749 148.412 208.66 148.379 208.568 148.379H0.347928C0.255653 148.379 0.167157 148.412 0.101908 148.47C0.0366596 148.528 0 148.607 0 148.689C0 148.771 0.0366596 148.85 0.101908 148.909C0.167157 148.967 0.255653 148.999 0.347928 148.999Z" fill="#CCCCCC"/>
<path d="M151.956 75.5642C151.94 82.6123 148.969 89.4002 143.626 94.5935C138.283 99.7868 130.954 103.01 123.082 103.629C115.209 104.248 107.361 102.219 101.081 97.9396C94.8015 93.6604 90.5437 87.441 89.1452 80.5042C87.7466 73.5674 89.3084 66.415 93.5235 60.453C97.7387 54.4911 104.302 50.1509 111.924 48.2857C119.545 46.4206 127.674 47.1654 134.711 50.3738C141.747 53.5821 147.184 59.0219 149.952 65.6237C150.021 65.7894 150.088 65.9552 150.153 66.1226V66.1242C150.446 66.8599 150.703 67.6093 150.925 68.3725C151.612 70.7207 151.958 73.1376 151.956 75.5642Z" fill="#3F3D56"/>
<path d="M116.601 56.39C115.169 55.6994 113.579 55.3095 111.952 55.2502C110.325 55.1908 108.705 55.4635 107.214 56.0476C105.902 56.5569 104.52 57.4707 104.082 59.1208C105.853 58.1888 108.145 59.6613 108.601 62.0235L108.494 62.0497C108.254 63.6858 108.791 65.4671 109.831 66.4817C109.908 66.0239 110.099 65.5872 110.389 65.2034C110.68 64.8196 111.062 64.4982 111.509 64.2626C112.273 63.8146 113.119 63.4892 113.702 62.7191C114.393 61.8061 114.569 60.4718 114.844 59.2547C115.119 58.0375 115.64 56.7292 116.601 56.39Z" fill="#84AFD7"/>
<path d="M106.689 70.3121C106.199 70.9689 105.543 71.381 104.956 71.8941C104.277 72.4446 103.832 73.1867 103.695 73.9956C103.621 74.5671 103.736 75.1481 103.72 75.726C103.704 76.3039 103.488 76.9544 103.047 77.098C102.351 77.3222 101.82 76.1697 101.105 76.0891C100.537 76.026 100.025 76.8233 100.19 77.5149C100.354 78.2064 101.128 78.5127 101.572 78.0612C101.974 78.6627 101.691 79.7537 101.087 79.9384C101.023 80.3174 100.96 80.6947 100.898 81.0737C99.3716 80.1216 97.8296 79.1538 96.5318 77.7596C95.0885 76.2222 94.1933 74.3353 93.9611 72.3409C93.7929 70.7384 94.0425 68.9053 93.2175 67.6722C92.5571 66.6854 91.424 66.4675 90.4042 66.5291C90.2183 66.5401 90.0306 66.5591 89.8447 66.5796C90.4461 64.9688 91.21 63.4098 92.1269 61.9219C92.3344 61.8425 92.5272 61.7355 92.6987 61.6046C93.6477 60.8862 94.0691 59.432 94.8392 58.4263C94.8888 58.3615 94.9401 58.2984 94.9932 58.2368C95.7811 57.3195 96.8363 56.8474 97.8561 56.4085C100.113 55.4312 102.436 54.4412 104.819 54.577L104.141 54.6354C103.35 56.6122 102.558 58.5889 101.765 60.5657C101.645 60.8688 101.523 61.1725 101.401 61.4767C100.951 62.6008 100.487 63.7976 100.556 65.056C100.597 65.8012 100.887 66.597 101.44 66.8527C101.955 67.0896 102.518 66.7991 103.015 66.5117C103.226 66.3917 103.435 66.2717 103.646 66.1501C104.401 65.7159 105.239 65.2707 106.037 65.5612C106.769 65.8264 107.309 66.7122 107.411 67.6674C107.505 68.596 107.251 69.5261 106.689 70.3121Z" fill="#84AFD7"/>
<path d="M111.185 83.809C108.977 82.5967 106.769 81.3844 104.561 80.172L104.598 80.0859C103.225 80.5522 102.656 82.7284 102.882 84.508C103.109 86.2876 103.879 87.8785 104.267 89.6125C104.791 91.9855 104.593 94.4403 103.694 96.7221C106.598 93.8169 109.167 90.6595 111.364 87.2972C111.671 86.8734 111.905 86.411 112.058 85.9253C112.22 85.4078 112.162 84.8551 111.896 84.3731C111.715 84.1353 111.471 83.9414 111.185 83.809Z" fill="#84AFD7"/>
<path d="M102.471 61.7527C102.212 62.2491 102.172 62.8145 102.36 63.336C102.577 63.7562 102.973 64.0826 103.459 64.2442L104.679 64.7835C105.085 64.9629 105.522 65.1441 105.936 64.9965C106.435 64.8184 106.781 64.1207 106.692 63.473C106.596 62.7838 106.109 62.3097 105.659 61.9059C105.028 61.3409 104.398 60.7759 103.767 60.2109L103.412 60.5991C103.027 60.9334 102.709 61.3235 102.471 61.7527Z" fill="#84AFD7"/>
<path d="M145.416 69.1198C145.965 69.2351 146.514 69.3503 147.063 69.4656C146.967 71.1187 146.048 72.6486 144.816 73.2028C144.303 73.4333 143.731 73.5185 143.306 73.9496C142.922 74.3411 142.727 74.9506 142.548 75.5332C142.235 76.55 141.921 77.5668 141.608 78.5835C141.272 79.6793 140.84 80.8966 139.965 81.2913C139.214 81.6308 138.356 81.2155 137.778 80.5192C137.201 79.823 136.849 78.8867 136.507 77.9741C136.528 78.9688 136.01 79.9446 135.275 80.2903C134.538 80.6361 133.643 80.3235 133.15 79.5514C132.796 78.9972 132.649 78.2662 132.302 77.7041C131.955 77.142 131.228 76.82 130.849 77.3473C130.599 77.6978 130.631 78.2346 130.507 78.6799C130.445 78.9755 130.281 79.2464 130.037 79.4549C129.794 79.6635 129.485 79.7993 129.151 79.8435C128.844 79.8372 128.542 79.7753 128.263 79.6616C127.984 79.5479 127.734 79.3847 127.527 79.1819C126.443 78.1929 125.737 76.9235 125.511 75.5553C125.357 74.8993 125.377 74.2204 125.567 73.5722C125.785 72.9581 126.311 72.4844 126.833 72.6012C127.177 71.9539 126.499 71.095 125.888 71.1708C125.275 71.2465 124.796 71.8323 124.293 72.2823C123.792 72.7323 123.091 73.0591 122.586 72.6123C122.597 72.7757 122.535 72.9364 122.414 73.0591C122.292 73.1818 122.121 73.2564 121.938 73.2664C121.919 73.2674 121.901 73.2678 121.883 73.2675C121.548 73.1816 121.236 73.0343 120.968 72.8349C119.812 72.1923 118.344 72.6186 117.522 73.8343C118.036 71.886 118.788 69.6503 120.366 69.1924C121.01 69.0045 121.713 69.1593 122.322 68.834C123.4 68.2577 123.618 66.0804 122.687 65.1821C122.806 66.0315 122.783 67.023 122.28 67.6041C121.777 68.1851 120.722 67.8062 120.785 66.9473C120.771 67.0681 120.714 67.1817 120.623 67.272C120.532 67.3622 120.411 67.4244 120.278 67.4497C120.145 67.4749 120.006 67.4619 119.881 67.4125C119.757 67.3631 119.653 67.2798 119.585 67.1746C119.25 66.7199 119.279 65.9763 119.516 65.4331C119.761 64.9412 120.111 64.497 120.548 64.1258C121.389 63.3222 122.243 62.5091 123.216 62.0038C124.192 61.4986 125.318 61.3281 126.295 61.8302C126.81 62.0954 127.264 62.5375 127.789 62.7712C127.913 62.8395 128.05 62.8855 128.194 62.9065C128.337 62.9275 128.484 62.9231 128.626 62.8936C128.767 62.864 128.901 62.8098 129.019 62.7342C129.137 62.6586 129.238 62.5629 129.314 62.4527C129.32 62.4442 129.326 62.4356 129.332 62.427C129.723 61.8143 129.539 60.9049 129.684 60.1392C129.944 58.7861 131.461 58.153 132.302 59.0466C131.674 58.9029 131.024 59.566 130.946 60.3697C130.867 61.1733 131.322 61.9849 131.931 62.228C132.954 62.6322 133.956 61.6154 134.73 60.6744C135.537 59.6892 136.346 58.7045 137.155 57.7204C137.285 57.5528 137.43 57.3954 137.589 57.2499C137.843 57.0294 138.181 56.9032 138.535 56.8967C138.889 56.8903 139.232 57.0041 139.496 57.2151C140.314 57.8103 140.698 59.0308 141.369 59.8708C142.343 61.0912 143.8 61.3881 145.156 61.6249C146.167 61.8002 147.178 61.9765 148.191 62.1538C148.865 63.2731 149.454 64.4321 149.952 65.6226C148.096 66.3774 146.522 67.5911 145.416 69.1198Z" fill="#84AFD7"/>
<path d="M150.925 68.3714C150.718 68.9166 150.604 69.4867 150.589 70.0623C149.721 69.1182 149.583 67.3483 150.153 66.123C150.446 66.8588 150.703 67.6082 150.925 68.3714Z" fill="#84AFD7"/>
<path d="M148.685 88.1183C147.926 89.4918 147.044 90.8082 146.047 92.0544C145.409 91.8113 144.724 92.2455 144.128 92.6528C143.504 93.0791 142.755 93.4944 142.116 93.1059C141.463 92.7081 141.252 91.595 141.459 90.7124C141.698 89.8982 142.114 89.1341 142.685 88.4641C143.216 87.7567 143.784 87.0225 144.522 86.7478C145.262 86.4731 146.213 86.8615 146.429 87.7994L146.953 87.7836C146.659 87.4236 146.813 86.6784 147.208 86.5473C147.663 86.3942 148.058 86.9515 148.327 87.4441C148.448 87.6667 148.57 87.891 148.685 88.1183Z" fill="#84AFD7"/>
<path d="M128.613 81.449C127.487 81.5122 126.595 80.2755 126.002 79.059C125.409 77.8424 124.868 76.4512 123.852 75.8319C123.271 75.4781 122.609 75.4296 121.979 75.2581C121.621 75.1776 121.291 75.0224 121.014 74.8052C120.738 74.588 120.523 74.3152 120.388 74.0094L119.674 73.752C118.674 74.1975 117.759 74.7795 116.961 75.477C116.049 76.3409 115.481 77.4484 115.344 78.6286C115.208 79.9041 115.712 81.3263 116.654 81.8054C117.398 82.184 118.264 81.9454 119.018 82.292C119.96 82.725 120.519 83.9829 120.731 85.225C120.942 86.467 120.889 87.7577 121.04 89.0138C121.192 90.2699 121.609 91.577 122.473 92.2207C123.553 93.0262 125.139 92.3568 125.624 90.8905C125.862 90.1712 125.854 89.3596 126.032 88.613C126.345 87.2982 127.19 86.3227 127.861 85.2441C128.532 84.1655 129.059 82.7007 128.613 81.449Z" fill="#84AFD7"/>
<path d="M117.482 68.5295C117.587 68.6157 117.685 68.7085 117.776 68.8072C117.869 68.9508 117.917 69.1145 117.914 69.2805C117.91 69.4465 117.857 69.6086 117.758 69.7493C117.893 69.7424 118.026 69.7105 118.147 69.6556C118.268 69.6007 118.375 69.524 118.462 69.4303C118.667 69.2215 118.848 68.9943 119.001 68.7523C119.073 68.6695 119.125 68.5739 119.152 68.4719C119.18 68.37 119.182 68.264 119.16 68.161C119.107 68.0255 118.981 67.9678 118.893 67.8659C118.771 67.6668 118.687 67.4506 118.646 67.2265C118.597 67.0165 118.484 66.8228 118.318 66.6672C118.153 66.5116 117.942 66.4003 117.709 66.3457L117.766 66.3553C117.669 66.4062 117.594 66.4826 117.549 66.5738C117.504 66.665 117.492 66.7665 117.515 66.864C117.549 67.061 117.691 67.2246 117.677 67.4255C117.656 67.7145 117.333 67.8501 117.313 68.1391C117.309 68.284 117.37 68.4243 117.482 68.5295Z" fill="#84AFD7"/>
<path d="M115.553 63.617L115.558 63.6161C115.592 63.5881 115.625 63.5578 115.654 63.5254L115.553 63.617Z" fill="#84AFD7"/>
<path d="M115.89 64.9746C116.025 64.8688 116.126 64.7318 116.179 64.5786C116.233 64.4255 116.239 64.2621 116.196 64.1062C116.114 63.7777 115.825 63.5568 115.557 63.6175C115.48 63.6875 115.384 63.7389 115.278 63.7667C115.172 63.7945 115.06 63.7978 114.952 63.7764C114.787 63.7384 114.606 63.6408 114.462 63.7518C114.381 63.8346 114.323 63.9345 114.296 64.0422C114.243 64.1874 114.19 64.3325 114.137 64.4776C114.111 64.5296 114.105 64.5872 114.118 64.6426C114.128 64.6648 114.144 64.6843 114.165 64.6993C114.186 64.7142 114.211 64.724 114.238 64.7278C114.556 64.8115 114.874 64.8951 115.192 64.9787C115.302 65.0237 115.421 65.0467 115.542 65.046C115.662 65.0453 115.781 65.0209 115.89 64.9746Z" fill="#84AFD7"/>
<path d="M139.905 83.6991C139.758 83.4844 139.611 83.2697 139.464 83.055C139.32 82.8064 139.122 82.5853 138.883 82.4041C138.831 82.3654 138.771 82.3361 138.706 82.318C138.642 82.2999 138.574 82.2933 138.507 82.2987C138.439 82.304 138.374 82.321 138.314 82.3489C138.254 82.3768 138.201 82.415 138.157 82.4613L138.149 82.4696L138.167 82.5922C138.561 82.9687 138.829 83.4355 138.942 83.9404C138.976 84.1598 138.964 84.3869 138.993 84.6073C138.996 84.7094 139.022 84.8101 139.069 84.9034C139.116 84.9967 139.183 85.0809 139.266 85.1512C139.497 85.2891 139.769 85.0857 139.934 84.8375C140.081 84.6337 140.147 84.3916 140.122 84.1501C140.085 83.9881 140.011 83.8346 139.905 83.6991Z" fill="#84AFD7"/>
<path d="M142.212 83.9782C142.24 83.7773 142.222 83.5733 142.158 83.3788C142.148 83.1157 142.226 82.8559 142.383 82.6328C142.539 82.4224 142.657 82.1917 142.733 81.9488C142.765 81.8382 142.759 81.7215 142.716 81.6138C142.667 81.5163 142.549 81.4719 142.482 81.5491L142.627 81.6322C142.431 81.6011 142.23 81.6098 142.039 81.6575C141.93 81.6948 141.833 81.7549 141.755 81.8327C141.678 81.9106 141.623 82.004 141.594 82.105C141.57 82.2624 141.531 82.4178 141.477 82.5692C141.391 82.7275 141.224 82.7801 141.119 82.919C141.047 83.0421 141.011 83.1792 141.014 83.3179C141.016 83.4566 141.058 83.5925 141.134 83.7134C141.266 83.9112 141.475 84.0583 141.722 84.1259C141.899 84.1825 142.131 84.1855 142.212 83.9782Z" fill="#84AFD7"/>
<path d="M146.32 85.0852C146.384 85.2334 146.47 85.3735 146.575 85.5018C146.771 85.6784 147.039 85.5699 147.277 85.5269C147.494 85.4964 147.715 85.5188 147.919 85.5915C148.122 85.6643 148.3 85.7848 148.433 85.9402C148.34 85.5287 148.138 85.143 147.844 84.8155C147.549 84.4881 147.171 84.2283 146.741 84.0582C146.182 83.8857 145.593 83.8035 145.001 83.8156L144.9 83.8387C145.158 84.507 145.966 84.4921 146.32 85.0852Z" fill="#84AFD7"/>
<path d="M128.921 86.4516L128.922 86.4545L128.952 86.4043L128.921 86.4516Z" fill="#84AFD7"/>
<path d="M128.298 87.5279C128.162 87.7479 128.045 87.9769 127.948 88.2128C127.82 88.5949 127.735 88.9875 127.695 89.3847C127.663 89.6105 127.653 89.899 127.812 90.0091C127.858 90.036 127.913 90.0473 127.967 90.0407C128.021 90.0342 128.071 90.0102 128.106 89.9734C128.195 89.8902 128.267 89.7946 128.32 89.6905C128.632 89.2115 128.874 88.699 129.04 88.1654C129.214 87.5993 129.173 86.9979 128.922 86.4551C128.714 86.8127 128.506 87.1703 128.298 87.5279Z" fill="#84AFD7"/>
<path d="M122.286 58.8684C122.385 58.9547 122.51 59.0133 122.646 59.0369C122.782 59.0606 122.923 59.0482 123.051 59.0015C123.316 58.898 123.559 58.7547 123.77 58.5777C123.945 58.4625 124.093 58.3185 124.206 58.1534C124.269 58.0548 124.309 57.9461 124.324 57.8336C124.34 57.7211 124.33 57.607 124.296 57.4979C124.247 57.3934 124.169 57.3016 124.069 57.2314C123.97 57.1611 123.852 57.1147 123.726 57.0965C123.373 57.0031 123.02 56.9097 122.667 56.8163L122.923 56.611C122.66 56.4853 122.369 56.7187 122.205 57.0077C122.099 57.1964 122.026 57.398 121.987 57.6058C121.931 57.823 121.929 58.0485 121.981 58.2665C122.032 58.4845 122.136 58.6899 122.286 58.8684Z" fill="#84AFD7"/>
<path d="M128.52 57.0024C128.62 57.1003 128.758 57.1607 128.905 57.1714C129.053 57.1821 129.2 57.1423 129.315 57.0601C129.415 56.9933 129.498 56.9084 129.559 56.8111C129.619 56.7138 129.656 56.6062 129.667 56.4953C129.692 56.2476 129.555 55.9724 129.359 55.951L129.404 55.7191C129.026 55.6582 128.561 55.646 128.358 56.0552C128.29 56.2119 128.269 56.3819 128.297 56.5482C128.326 56.7144 128.403 56.871 128.52 57.0024Z" fill="#84AFD7"/>
<path d="M91.3051 81.8202C90.9422 81.5295 90.6552 81.1714 90.4642 80.7711C90.2732 80.3709 90.183 79.9381 90.1997 79.5034C90.2165 79.0686 90.3399 78.6424 90.5612 78.2548C90.7826 77.8671 91.0965 77.5274 91.4809 77.2596L87.6514 67.25L93.6178 68.6321L96.3368 77.925C96.7988 78.531 96.9954 79.2671 96.8894 79.9937C96.7833 80.7204 96.3819 81.387 95.7614 81.8673C95.1408 82.3476 94.3442 82.6082 93.5226 82.5996C92.7009 82.5909 91.9114 82.3137 91.3037 81.8206L91.3051 81.8202Z" fill="#FFB7B7"/>
<path d="M89.5945 75.7449L95.3833 73.4443L93.4385 55.9832L95.2498 38.376L87.5208 34.6562L85.8832 36.4976V36.5394L85.0156 58.8041L85.0202 58.8209L89.5945 75.7449Z" fill="#E6E7E8"/>
<path d="M178.275 127.778C175.002 126.436 171.471 124.855 167.683 123.034C148.091 113.615 123.999 98.921 99.8444 81.6597C75.6901 64.3984 54.3594 46.6313 39.7818 31.632C32.6806 24.3252 27.5655 18.0677 24.5789 13.0332C21.4166 7.70317 20.7789 3.92607 22.683 1.80702C26.3927 -2.32118 38.4737 1.39714 47.9552 5.24342L47.6087 5.92292C34.5881 0.64093 25.968 -0.654927 23.3362 2.27388C19.9841 6.00408 26.209 16.5264 40.4143 31.1431C54.9599 46.1095 76.2517 63.8432 100.368 81.0773C124.484 98.3112 148.531 112.978 168.08 122.377C187.171 131.555 200.044 134.68 203.396 130.95C206.179 127.853 202.383 120.052 192.707 108.985L193.367 108.526C200.398 116.568 207.958 127.067 204.049 131.417C202.145 133.536 197.873 133.804 191.35 132.213C187.632 131.306 183.257 129.821 178.275 127.778Z" fill="#84AFD7"/>
<path d="M52.9355 77.4483C43.9113 73.7479 35.6644 70.0313 28.4413 66.3941C19.0001 61.6398 11.8248 57.2785 7.11493 53.4318C2.12842 49.3589 0.104641 45.9925 1.0998 43.4261C3.03818 38.4265 15.8179 38.3089 26.1974 39.0905L26.1269 39.8345C11.8732 38.7609 3.26608 40.1231 1.89071 43.6702C0.139024 48.1879 9.96634 56.2334 28.8528 65.744C48.1917 75.4823 74.9269 85.8057 104.134 94.8115C133.341 103.818 161.517 110.427 183.47 113.422C204.91 116.346 218.212 115.433 219.963 110.915C221.418 107.164 214.903 100.955 201.62 93.4298L202.069 92.7997C211.721 98.2672 222.797 105.891 220.754 111.159C219.759 113.725 215.836 115.258 209.094 115.714C202.725 116.145 194.061 115.622 183.344 114.16C161.342 111.159 133.114 104.538 103.861 95.5171C85.5094 89.8582 68.1254 83.6775 52.9355 77.4483Z" fill="#84AFD7"/>
<path d="M66.626 39.4579C69.32 39.4579 71.5039 37.5103 71.5039 35.1079C71.5039 32.7054 69.32 30.7578 66.626 30.7578C63.932 30.7578 61.748 32.7054 61.748 35.1079C61.748 37.5103 63.932 39.4579 66.626 39.4579Z" fill="#E6E6E6"/>
<path d="M162.775 92.5524C164.424 92.5524 165.761 91.3602 165.761 89.8895C165.761 88.4188 164.424 87.2266 162.775 87.2266C161.126 87.2266 159.789 88.4188 159.789 89.8895C159.789 91.3602 161.126 92.5524 162.775 92.5524Z" fill="#FF6584"/>
<path d="M16.7344 115.929C19.4284 115.929 21.6123 113.981 21.6123 111.579C21.6123 109.176 19.4284 107.229 16.7344 107.229C14.0404 107.229 11.8564 109.176 11.8564 111.579C11.8564 113.981 14.0404 115.929 16.7344 115.929Z" fill="#E6E6E6"/>
</g>
<defs>
<clipPath id="clip0_423_1946">
<rect width="221" height="149" fill="white"/>
</clipPath>
</defs>
</svg>
