<svg width="314" height="222" viewBox="0 0 314 222" fill="none" xmlns="http://www.w3.org/2000/svg">
<g clip-path="url(#clip0_423_2036)">
<path d="M209.094 222L209.027 221.994L104.907 213.529L10.2269 221.227C7.75485 221.428 5.29284 220.761 3.38246 219.374C1.47208 217.986 0.269835 215.991 0.0402028 213.827C0.0134756 213.575 0.000101326 213.323 7.81023e-05 213.07V15.9959C-0.0094784 13.9519 0.858269 11.9793 2.43152 10.4686C4.00477 8.95784 6.16882 8.01921 8.4952 7.8385L104.907 0L104.973 0.0055359L209.094 8.47055L303.773 0.772985C306.245 0.571999 308.707 1.2387 310.618 2.62643C312.528 4.01415 313.73 6.00922 313.96 8.17275C313.987 8.42463 314 8.67719 314 8.93044V206.004C314.01 208.048 313.142 210.021 311.569 211.531C309.995 213.042 307.831 213.981 305.505 214.161L209.094 222Z" fill="#3F3D56"/>
<path d="M145.14 72.9066C124.985 60.0599 103.779 47.878 82.1157 36.7013L81.0284 36.1404V74.0473H146.93L145.14 72.9066ZM82.4685 72.7869V38.3493C103.077 49.0187 123.257 60.5955 142.501 72.7869L82.4685 72.7869ZM247.143 150.81C238.426 142.878 229.484 135.128 220.316 127.558C217.789 125.469 215.246 123.397 212.687 121.341C197.072 108.787 180.944 96.8482 164.302 85.5234L164.107 85.391H81.0284V151.878H248.316L247.143 150.81ZM82.4685 150.617V86.6514H163.614C179.661 97.576 195.273 109.112 210.451 121.259C213.087 123.367 215.704 125.492 218.304 127.634C227.391 135.108 236.266 142.769 244.928 150.617H82.4685ZM247.143 150.81C238.426 142.878 229.484 135.128 220.316 127.558C217.789 125.469 215.246 123.397 212.687 121.341C197.072 108.787 180.944 96.8482 164.302 85.5234L164.107 85.391H81.0284V151.878H248.316L247.143 150.81ZM82.4685 150.617V86.6514H163.614C179.661 97.576 195.273 109.112 210.451 121.259C213.087 123.367 215.704 125.492 218.304 127.634C227.391 135.108 236.266 142.769 244.928 150.617H82.4685ZM145.14 72.9066C124.985 60.0599 103.779 47.878 82.1157 36.7013L81.0284 36.1404V74.0473H146.93L145.14 72.9066ZM82.4685 72.7869V38.3493C103.077 49.0187 123.257 60.5955 142.501 72.7869L82.4685 72.7869ZM145.14 72.9066C124.985 60.0599 103.779 47.878 82.1157 36.7013L81.0284 36.1404V74.0473H146.93L145.14 72.9066ZM82.4685 72.7869V38.3493C103.077 49.0187 123.257 60.5955 142.501 72.7869L82.4685 72.7869ZM247.143 150.81C238.426 142.878 229.484 135.128 220.316 127.558C217.789 125.469 215.246 123.397 212.687 121.341C197.072 108.787 180.944 96.8482 164.302 85.5234L164.107 85.391H81.0284V151.878H248.316L247.143 150.81ZM82.4685 150.617V86.6514H163.614C179.661 97.576 195.273 109.112 210.451 121.259C213.087 123.367 215.704 125.492 218.304 127.634C227.391 135.108 236.266 142.769 244.928 150.617H82.4685ZM9.74805 163.221V164.482H66.6268V182.758H9.74805V184.018H68.067V163.221H9.74805ZM81.0284 195.362V208.133L82.4685 208.017V196.622H304.252V195.362L81.0284 195.362ZM304.252 164.482V163.221H81.0284V184.018H304.252V182.758H82.4685V164.482L304.252 164.482ZM169.76 72.7869C142.131 54.1341 112.953 37.3083 82.4685 22.4492V9.6875L81.0283 9.80409V22.6645L82.1373 23.7316C112.498 38.5504 141.557 55.3244 169.076 73.915L169.27 74.0473H304.252V72.7869L169.76 72.7869ZM66.6268 72.7869H9.74805V74.0473H68.067V10.8565L66.6268 10.9731L66.6268 72.7869ZM304.252 85.391H185.587L187.139 86.5065C201.749 97.0278 216.094 108.187 230.174 119.983C232.176 121.659 234.171 123.349 236.158 125.053C246.052 133.514 255.752 142.25 265.26 151.263L266.447 151.878H304.252V150.617H266.538C257.134 141.694 247.525 133.028 237.713 124.621C235.751 122.939 233.782 121.268 231.805 119.608C218.03 108.041 203.961 97.0551 189.598 86.6514H304.252V85.391ZM9.74805 195.362V196.622H66.6268V209.302L68.067 209.186V195.362H9.74805ZM9.74805 85.391V86.6514H66.6268V150.617H9.74805V151.878H68.067V85.391H9.74805ZM145.14 72.9066C124.985 60.0599 103.779 47.878 82.1157 36.7013L81.0284 36.1404V74.0473H146.93L145.14 72.9066ZM82.4685 72.7869V38.3493C103.077 49.0187 123.257 60.5955 142.501 72.7869L82.4685 72.7869ZM247.143 150.81C238.426 142.878 229.484 135.128 220.316 127.558C217.789 125.469 215.246 123.397 212.687 121.341C197.072 108.787 180.944 96.8482 164.302 85.5234L164.107 85.391H81.0284V151.878H248.316L247.143 150.81ZM82.4685 150.617V86.6514H163.614C179.661 97.576 195.273 109.112 210.451 121.259C213.087 123.367 215.704 125.492 218.304 127.634C227.391 135.108 236.266 142.769 244.928 150.617H82.4685ZM145.14 72.9066C124.985 60.0599 103.779 47.878 82.1157 36.7013L81.0284 36.1404V74.0473H146.93L145.14 72.9066ZM82.4685 72.7869V38.3493C103.077 49.0187 123.257 60.5955 142.501 72.7869L82.4685 72.7869ZM247.143 150.81C238.426 142.878 229.484 135.128 220.316 127.558C217.789 125.469 215.246 123.397 212.687 121.341C197.072 108.787 180.944 96.8482 164.302 85.5234L164.107 85.391H81.0284V151.878H248.316L247.143 150.81ZM82.4685 150.617V86.6514H163.614C179.661 97.576 195.273 109.112 210.451 121.259C213.087 123.367 215.704 125.492 218.304 127.634C227.391 135.108 236.266 142.769 244.928 150.617H82.4685Z" fill="white"/>
<path d="M160.823 82.9423C160.823 98.9029 127.803 134.458 127.803 134.458C127.803 134.458 94.7822 98.9029 94.7822 82.9423C94.7822 75.2777 98.2612 67.9271 104.454 62.5074C110.646 57.0877 119.045 54.043 127.803 54.043C136.56 54.043 144.959 57.0877 151.152 62.5074C157.344 67.9271 160.823 75.2777 160.823 82.9423Z" fill="#84AFD7"/>
<path d="M142.898 81.6857C142.898 84.2986 142.013 86.8529 140.354 89.0254C138.696 91.198 136.338 92.8913 133.58 93.8912C130.821 94.8911 127.786 95.1528 124.858 94.643C121.93 94.1333 119.24 92.875 117.129 91.0274C115.018 89.1798 113.581 86.8258 112.998 84.2631C112.416 81.7004 112.715 79.0441 113.857 76.63C115 74.216 116.934 72.1527 119.417 70.7011C121.899 69.2494 124.818 68.4746 127.803 68.4746C129.786 68.4738 131.749 68.815 133.581 69.4786C135.413 70.1423 137.077 71.1153 138.479 72.3423C139.881 73.5692 140.993 75.0259 141.751 76.6291C142.509 78.2323 142.899 79.9506 142.898 81.6857Z" fill="white"/>
<path d="M127.803 155.317C132.719 155.317 136.704 151.829 136.704 147.527C136.704 143.224 132.719 139.736 127.803 139.736C122.887 139.736 118.901 143.224 118.901 147.527C118.901 151.829 122.887 155.317 127.803 155.317Z" fill="#84AFD7"/>
<path d="M213.088 49.7311C220.356 49.7311 226.248 44.5743 226.248 38.2132C226.248 31.852 220.356 26.6953 213.088 26.6953C205.82 26.6953 199.928 31.852 199.928 38.2132C199.928 44.5743 205.82 49.7311 213.088 49.7311Z" fill="#FF6584"/>
<path d="M254.358 73.7065H189.797C189.716 73.7074 189.635 73.7018 189.556 73.6897L220.09 27.4009C220.276 27.1126 220.547 26.8728 220.874 26.706C221.201 26.5391 221.572 26.4512 221.951 26.4512C222.329 26.4512 222.701 26.5391 223.028 26.706C223.355 26.8728 223.625 27.1126 223.811 27.4009L244.304 58.4643L245.286 59.9507L254.358 73.7065Z" fill="white"/>
<path opacity="0.2" d="M254.357 73.707H232.314L243.135 59.9511L243.914 58.9603L244.303 58.4648L245.285 59.9511L254.357 73.707Z" fill="black"/>
<path d="M290.305 73.7069H234.465L245.285 59.9511L246.064 58.9602L260.164 41.0337C261.089 39.8589 263.313 39.7857 264.4 40.8122C264.473 40.8822 264.54 40.9562 264.603 41.0337L290.305 73.7069Z" fill="white"/>
<path d="M294.448 138.958C298.126 138.958 301.108 136.348 301.108 133.128C301.108 129.909 298.126 127.299 294.448 127.299C290.769 127.299 287.787 129.909 287.787 133.128C287.787 136.348 290.769 138.958 294.448 138.958Z" fill="white"/>
<path d="M295.09 150.688H293.726L294.347 132.252L295.09 150.688Z" fill="#CBCBCB"/>
<path d="M294.467 135.746L295.932 133.973L294.447 136.185L294.287 135.939L294.467 135.746Z" fill="#CBCBCB"/>
<path d="M294.308 137.537L292.843 135.764L294.328 137.976L294.488 137.73L294.308 137.537Z" fill="#CBCBCB"/>
<path d="M275.509 133.366C280.942 133.366 285.346 129.511 285.346 124.756C285.346 120.001 280.942 116.146 275.509 116.146C270.076 116.146 265.672 120.001 265.672 124.756C265.672 129.511 270.076 133.366 275.509 133.366Z" fill="white"/>
<path d="M276.457 150.688H274.442L275.361 123.459L276.457 150.688Z" fill="#CBCBCB"/>
<path d="M275.538 128.619L277.701 126L275.508 129.267L275.271 128.904L275.538 128.619Z" fill="#CBCBCB"/>
<path d="M275.302 131.263L273.139 128.645L275.332 131.912L275.568 131.549L275.302 131.263Z" fill="#CBCBCB"/>
<path d="M47.1187 138.958C50.7973 138.958 53.7794 136.348 53.7794 133.128C53.7794 129.909 50.7973 127.299 47.1187 127.299C43.4401 127.299 40.458 129.909 40.458 133.128C40.458 136.348 43.4401 138.958 47.1187 138.958Z" fill="white"/>
<path d="M47.7607 150.688H46.3965L47.0183 132.252L47.7607 150.688Z" fill="#CBCBCB"/>
<path d="M47.1393 135.746L48.6041 133.973L47.1192 136.185L46.959 135.939L47.1393 135.746Z" fill="#CBCBCB"/>
<path d="M46.9785 137.537L45.5137 135.764L46.9985 137.976L47.1588 137.73L46.9785 137.537Z" fill="#CBCBCB"/>
<path d="M28.18 133.366C33.613 133.366 38.0173 129.511 38.0173 124.756C38.0173 120.001 33.613 116.146 28.18 116.146C22.7471 116.146 18.3428 120.001 18.3428 124.756C18.3428 129.511 22.7471 133.366 28.18 133.366Z" fill="white"/>
<path d="M29.1281 150.688H27.1133L28.0321 123.459L29.1281 150.688Z" fill="#CBCBCB"/>
<path d="M28.2098 128.619L30.3727 126L28.1802 129.267L27.9434 128.904L28.2098 128.619Z" fill="#CBCBCB"/>
<path d="M27.9728 131.263L25.8096 128.645L28.0024 131.912L28.2393 131.549L27.9728 131.263Z" fill="#CBCBCB"/>
</g>
<defs>
<clipPath id="clip0_423_2036">
<rect width="314" height="222" fill="white"/>
</clipPath>
</defs>
</svg>
