<svg width="250" height="167" viewBox="0 0 250 167" fill="none" xmlns="http://www.w3.org/2000/svg">
<g clip-path="url(#clip0_430_2248)">
<path opacity="0.1" d="M83.1148 166.906C95.2896 166.906 105.159 165.412 105.159 163.567C105.159 161.723 95.2896 160.229 83.1148 160.229C70.9399 160.229 61.0703 161.723 61.0703 163.567C61.0703 165.412 70.9399 166.906 83.1148 166.906Z" fill="#84AFD7"/>
<path opacity="0.1" d="M202.946 167C218.138 167 230.454 165.505 230.454 163.661C230.454 161.817 218.138 160.322 202.946 160.322C187.753 160.322 175.438 161.817 175.438 163.661C175.438 165.505 187.753 167 202.946 167Z" fill="#84AFD7"/>
<path opacity="0.1" d="M3.13073 72.1562H26.0914V101.669H4.81166C4.7551 101.972 4.70081 102.277 4.64199 102.583H26.0914V126.384C26.053 126.374 26.019 126.361 25.9828 126.348C25.3765 126.122 24.7747 125.883 24.173 125.627L23.7884 125.463C23.1851 125.194 22.5818 124.909 21.9785 124.609C21.7681 124.505 21.5577 124.396 21.3495 124.285C18.0003 122.516 14.9577 120.274 12.3272 117.637C12.2503 117.566 12.1779 117.492 12.101 117.423C11.7345 117.048 11.3748 116.668 11.0264 116.28L10.6418 115.853C10.23 115.377 9.83184 114.889 9.44498 114.394C9.38842 114.321 9.33412 114.249 9.2753 114.18C7.70193 112.123 6.39554 109.895 5.38404 107.545C5.35237 107.475 5.32522 107.398 5.29581 107.332C4.98511 106.578 4.70986 105.817 4.47005 105.049C4.36598 104.727 4.26643 104.409 4.18046 104.074C4.14879 103.976 4.12164 103.88 4.09676 103.784C2.81173 99.0537 2.66016 94.1402 2.66016 89.2608C2.66016 88.6911 2.66016 88.1193 2.66016 87.5539C2.66016 85.5804 2.68504 83.5941 2.72124 81.6099C2.72124 81.0958 2.74386 80.5837 2.75518 80.0674C2.78685 78.7574 2.8321 77.4474 2.89092 76.1374C2.90449 75.7726 2.92259 75.4099 2.94295 75.0472C2.94295 74.8381 2.95426 74.629 2.97689 74.4199C3.03118 73.6604 3.07643 72.9073 3.13073 72.1562Z" fill="#84AFD7"/>
<path opacity="0.1" d="M26.0916 39.2947H13.4971C15.5444 36.2727 17.7813 33.3688 20.1959 30.5985C22.0669 28.4308 24.0419 26.3186 26.0916 24.2832V39.2947Z" fill="#84AFD7"/>
<path opacity="0.1" d="M26.0914 40.209V71.2433H3.20312C3.20312 71.1537 3.21896 71.062 3.22575 70.9724C3.24611 70.727 3.26647 70.4817 3.28909 70.2384C3.31398 69.9525 3.34113 69.6645 3.37054 69.385C3.39995 69.1055 3.43162 68.7642 3.46556 68.4548C3.49949 68.1454 3.53117 67.8318 3.56963 67.5224C3.60809 67.2131 3.64202 66.9037 3.68275 66.5965C3.72347 66.2893 3.75967 65.9778 3.80265 65.6705C3.83659 65.4145 3.87278 65.1606 3.90898 64.9046C3.96101 64.544 4.01531 64.1813 4.07413 63.8229C4.07413 63.7696 4.08997 63.7141 4.09902 63.6629C4.51194 61.039 5.07458 58.438 5.78448 55.8712C6.52757 53.1787 7.47648 50.5404 8.62374 47.9772C9.84308 45.2957 11.2707 42.7028 12.8951 40.2197L26.0914 40.209Z" fill="#84AFD7"/>
<path opacity="0.1" d="M31.5732 72.1533V101.669H80.6145V72.1533H31.5732ZM31.5732 102.58V127.926C31.8538 127.981 32.132 128.035 32.4081 128.08C32.7836 128.148 33.1569 128.21 33.5392 128.263C33.6116 128.274 33.6863 128.284 33.7655 128.291C33.9148 128.314 34.0686 128.333 34.2179 128.353C34.5958 128.402 34.9713 128.442 35.3491 128.474C35.5279 128.491 35.7088 128.506 35.8898 128.519L36.3265 128.551C36.564 128.568 36.7993 128.581 37.0323 128.587C37.1771 128.587 37.3219 128.6 37.4712 128.604C37.5843 128.604 37.6975 128.604 37.8151 128.604C37.9327 128.604 38.1002 128.604 38.2427 128.604C38.4372 128.604 38.6318 128.604 38.8241 128.604H39.0843C39.2788 128.604 39.4734 128.604 39.6657 128.587H39.6793C39.8128 128.587 39.9485 128.587 40.0842 128.57C40.1219 128.572 40.1597 128.572 40.1974 128.57C40.3105 128.57 40.4236 128.57 40.5322 128.555H40.6114L41.3693 128.5C41.6181 128.479 41.8692 128.451 42.1226 128.425L42.6385 128.368C44.737 128.09 46.8122 127.674 48.8486 127.122C53.4231 125.918 57.8981 124.235 62.4703 123.002C68.3819 121.412 74.9133 120.631 80.6258 122.575V102.58H31.5732ZM80.6145 39.2948V0.00153602C75.2453 -0.0533221 69.8907 0.538904 64.6806 1.76383C52.2625 4.70597 41.1204 11.0874 31.5732 19.2375V39.2926H34.0347V40.2037H31.5732V71.2423H80.6145V40.2058H44.1407V39.2948H80.6145ZM143.605 26.0221C140.533 25.9197 137.479 25.0023 134.717 23.5856C129.434 20.876 125.215 16.6921 120.5 13.1612C110.704 5.80687 98.555 1.36913 86.0916 0.268227V39.2948H156.1L156.275 39.122L143.605 26.0221ZM149.983 24.9553L156.745 31.9533V23.1205C154.481 23.385 152.496 24.0144 149.992 24.9468L149.983 24.9553ZM156.745 134.22V102.58H142.336C142.298 102.445 142.259 102.309 142.214 102.172C142.257 102.309 142.293 102.445 142.334 102.58H86.1007V125.462C86.6346 125.835 87.1617 126.228 87.6843 126.627C88.2477 127.053 88.8042 127.503 89.363 127.945L89.9263 128.385C90.1956 128.598 90.467 128.811 90.7408 129.012C91.2837 129.427 91.832 129.837 92.3855 130.241C92.6593 130.454 92.9398 130.646 93.2181 130.847C97.6358 134.032 102.296 136.907 107.161 139.447C108.251 140.016 109.352 140.571 110.462 141.113C111.202 141.47 111.946 141.824 112.692 142.167C113.815 142.684 114.946 143.181 116.086 143.661C126.598 148.111 137.714 151.165 149.116 152.735C151.649 153.087 154.191 153.365 156.743 153.567V134.218H156.969L156.745 134.22ZM86.1007 40.2058V71.2423H156.754V40.2058H86.1007ZM86.1007 72.1533V101.669H156.754V72.1533H86.1007ZM162.238 23.0821V32.9347L170.869 24.0038C168.009 23.5685 165.133 23.2577 162.238 23.0714V23.0821ZM162.238 72.1639V101.669H230.957V72.1533L162.238 72.1639ZM230.706 136.562L230.948 102.58H162.238V153.906C166.665 154.081 171.098 154.031 175.518 153.757H175.595C177.707 153.631 179.808 153.449 181.9 153.21H181.948C193.108 151.985 204.021 149.239 214.345 145.058M244.208 77.0135C243.95 76.4396 243.681 75.8699 243.407 75.3066C242.896 74.2399 242.355 73.203 241.799 72.1661H236.437V101.669H249.993C249.986 93.3136 247.744 84.7795 244.215 77.0028L244.208 77.0135ZM236.437 102.59V131.82C240.256 128.368 243.482 124.418 245.805 119.904C248.599 114.468 249.878 108.581 249.982 102.586L236.437 102.59ZM236.437 63.5637V71.2444H241.296C239.826 68.6004 238.206 66.0329 236.444 63.553L236.437 63.5637ZM189.832 28.8725C189.475 28.7445 189.117 28.6143 188.758 28.4884C184.964 27.1672 181.087 26.0685 177.149 25.1985L163.942 38.8681L163.688 39.122L163.858 39.2969H210.865C204.319 35.047 197.261 31.5442 189.839 28.8618L189.832 28.8725ZM212.243 40.2165H163.202L162.238 41.0485V71.2423H170.686H170.699H230.966V56.6169C225.515 50.3989 219.222 44.8815 212.25 40.2058L212.243 40.2165Z" fill="#84AFD7"/>
<path opacity="0.1" d="M26.0914 55.8613V71.242H3.20312C3.20312 71.1523 3.21896 71.0606 3.22575 70.971C3.24611 70.7256 3.26647 70.4803 3.28909 70.2371C3.31398 69.9512 3.34113 69.6631 3.37054 69.3836C3.39995 69.1042 3.43162 68.7628 3.46556 68.4534C3.49949 68.1441 3.53117 67.8304 3.56963 67.5211C3.60809 67.2117 3.64202 66.9024 3.68275 66.5951C3.72347 66.2879 3.75967 65.9764 3.80265 65.6692C3.83659 65.4131 3.87278 65.1593 3.90898 64.9032C3.96101 64.5427 4.01531 64.18 4.07413 63.8215C4.07413 63.7682 4.08997 63.7127 4.09902 63.6615C4.51194 61.0376 5.07458 58.4366 5.78448 55.8699L26.0914 55.8613Z" fill="#84AFD7"/>
<path opacity="0.1" d="M3.13073 72.1562H26.0914V101.669H4.81166C4.7551 101.972 4.70081 102.277 4.64199 102.583H26.0914V126.384C26.053 126.374 26.019 126.361 25.9828 126.348C25.3765 126.122 24.7747 125.883 24.173 125.627L23.7884 125.463C23.1851 125.194 22.5818 124.909 21.9785 124.609C21.7681 124.505 21.5577 124.396 21.3495 124.285C18.0003 122.516 14.9577 120.274 12.3272 117.637C12.2503 117.566 12.1779 117.492 12.101 117.423C11.7345 117.048 11.3748 116.668 11.0264 116.28L10.6418 115.853C10.23 115.377 9.83184 114.889 9.44498 114.394C9.38842 114.321 9.33412 114.249 9.2753 114.18C7.70193 112.123 6.39554 109.895 5.38404 107.545C5.35237 107.475 5.32522 107.398 5.29581 107.332C4.98511 106.578 4.70986 105.817 4.47005 105.049C4.36598 104.727 4.26643 104.409 4.18046 104.074C4.14879 103.976 4.12164 103.88 4.09676 103.784C2.81173 99.0537 2.66016 94.1402 2.66016 89.2608C2.66016 88.6911 2.66016 88.1193 2.66016 87.5539C2.66016 85.5804 2.68504 83.5941 2.72124 81.6099C2.72124 81.0958 2.74386 80.5837 2.75518 80.0674C2.78685 78.7574 2.8321 77.4474 2.89092 76.1374C2.90449 75.7726 2.92259 75.4099 2.94295 75.0472C2.94295 74.8381 2.95426 74.629 2.97689 74.4199C3.03118 73.6604 3.07643 72.9073 3.13073 72.1562Z" fill="#84AFD7"/>
<path opacity="0.1" d="M48.8373 44.65V71.2423H31.5732V44.65H34.0347V35.6465H44.1384V44.65H48.8373Z" fill="#84AFD7"/>
<path opacity="0.1" d="M48.838 72.1543H31.5762V101.667H48.838V72.1543Z" fill="#84AFD7"/>
<path opacity="0.1" d="M31.5732 102.582H48.8373V127.118C46.8009 127.669 44.7256 128.085 42.6271 128.361L42.1113 128.421C41.8579 128.449 41.6068 128.472 41.358 128.496C41.1091 128.519 40.8512 128.536 40.6001 128.551H40.5209C40.4123 128.551 40.2946 128.564 40.1883 128.566H40.0729C39.9372 128.566 39.8015 128.579 39.6657 128.583C39.4734 128.594 39.2811 128.596 39.0843 128.598C39.0006 128.598 38.9214 128.598 38.8377 128.598C38.6431 128.598 38.4508 128.598 38.2563 128.598H37.8287C37.7133 128.598 37.6024 128.598 37.4825 128.598L37.0459 128.583C36.8197 128.583 36.5753 128.56 36.34 128.545L35.9057 128.515L35.365 128.468C34.9849 128.436 34.6071 128.396 34.2338 128.347L33.7813 128.287L33.5551 128.257C33.1773 128.201 32.804 128.142 32.4239 128.073C32.1456 128.029 31.8696 127.973 31.5891 127.92L31.5732 102.582Z" fill="#84AFD7"/>
<path opacity="0.1" d="M156.754 41.5098H142.52V71.2405H156.754V41.5098Z" fill="#84AFD7"/>
<path opacity="0.1" d="M156.756 72.1543V101.67H86.1006V88.9388H123.735V96.4488H142.519V72.1543H156.756Z" fill="#84AFD7"/>
<path opacity="0.1" d="M156.98 134.228H156.754V153.59C154.205 153.386 151.664 153.11 149.13 152.76C137.722 151.185 126.602 148.124 116.086 143.667C113.05 142.378 110.076 140.971 107.163 139.446C102.298 136.905 97.6374 134.03 93.218 130.846C92.1079 130.044 91.0122 129.223 89.9308 128.384C89.1819 127.802 88.4376 127.204 87.6842 126.624C87.1616 126.225 86.6345 125.832 86.1006 125.457V102.583H142.332C142.293 102.447 142.255 102.31 142.214 102.176C142.257 102.31 142.298 102.447 142.336 102.583H156.754V134.215C156.831 134.217 156.906 134.224 156.98 134.228Z" fill="#84AFD7"/>
<path opacity="0.1" d="M193.88 39.2953H184.604V36.5772H188.763V28.4805C189.123 28.6042 189.482 28.7315 189.84 28.8624V36.5772H193.88V39.2953Z" fill="#84AFD7"/>
<path opacity="0.1" d="M216.227 71.2433H170.69C170.69 71.2433 170.69 71.2433 170.706 71.254L170.686 71.2433H162.238V41.5126H164.632V63.4879H175.57V50.4734H184.606V40.209H193.882V50.4819H202.918V63.4965H216.227V71.2433Z" fill="#84AFD7"/>
<path opacity="0.1" d="M162.238 72.1543V101.67H216.227V72.1543H162.238ZM230.883 136.412L230.958 113.05H216.227V102.596H162.238V153.907C166.665 154.082 171.098 154.032 175.518 153.758H175.595C177.707 153.632 179.809 153.45 181.9 153.211H181.948C193.108 151.986 204.021 149.24 214.345 145.059" fill="#84AFD7"/>
<path opacity="0.1" d="M237.396 102.582H249.991C249.88 108.575 248.604 114.462 245.812 119.898C243.489 124.414 240.261 128.364 236.446 131.814V113.038H237.396V102.582Z" fill="#84AFD7"/>
<path opacity="0.1" d="M249.998 101.67H237.396V77.0039H244.215C247.745 84.7806 249.987 93.3147 249.998 101.67Z" fill="#84AFD7"/>
<path opacity="0.1" d="M156.756 49.7754H149.13V59.0968H156.756V49.7754Z" fill="#84AFD7"/>
<path opacity="0.1" d="M156.756 69.0957H149.13V71.242H156.756V69.0957Z" fill="#84AFD7"/>
<path opacity="0.1" d="M156.756 72.1543H149.13V78.4162H156.756V72.1543Z" fill="#84AFD7"/>
<path opacity="0.1" d="M156.756 88.418H149.13V97.7394H156.756V88.418Z" fill="#84AFD7"/>
<path opacity="0.1" d="M156.756 107.738H149.13V117.06H156.756V107.738Z" fill="#84AFD7"/>
<path opacity="0.1" d="M156.754 134.214C156.831 134.214 156.906 134.214 156.98 134.227H156.754V136.393H149.13V127.061H156.754V134.214Z" fill="#84AFD7"/>
<path opacity="0.1" d="M156.754 146.377V153.578C154.205 153.374 151.664 153.098 149.13 152.748V146.377H156.754Z" fill="#84AFD7"/>
<path opacity="0.1" d="M118.785 100.984H86.1006V101.669H118.785V100.984Z" fill="#84AFD7"/>
<path opacity="0.1" d="M118.785 102.58H86.1006V105.204H118.785V102.58Z" fill="#84AFD7"/>
<path opacity="0.1" d="M118.785 113.807H86.1006V118.027H118.785V113.807Z" fill="#84AFD7"/>
<path opacity="0.1" d="M118.783 126.629V130.849H93.2186C92.1086 130.05 91.0121 129.229 89.9291 128.387C89.1803 127.804 88.4382 127.207 87.6826 126.629H118.783Z" fill="#84AFD7"/>
<path opacity="0.1" d="M118.783 139.45V143.666H116.084C113.051 142.376 110.077 140.968 107.163 139.443L118.783 139.45Z" fill="#84AFD7"/>
<path opacity="0.1" d="M181.955 75.0156H175.521V81.0834H181.955V75.0156Z" fill="#84AFD7"/>
<path opacity="0.1" d="M42.6431 46.7441H36.209V52.8119H42.6431V46.7441Z" fill="#84AFD7"/>
<path opacity="0.1" d="M42.6431 60.8379H36.209V66.9057H42.6431V60.8379Z" fill="#84AFD7"/>
<path opacity="0.1" d="M42.6431 74.9316H36.209V80.9994H42.6431V74.9316Z" fill="#84AFD7"/>
<path opacity="0.1" d="M42.6431 89.0234H36.209V95.0912H42.6431V89.0234Z" fill="#84AFD7"/>
<path opacity="0.1" d="M42.6431 103.117H36.209V109.185H42.6431V103.117Z" fill="#84AFD7"/>
<path opacity="0.1" d="M42.6431 117.213H36.209V123.281H42.6431V117.213Z" fill="#84AFD7"/>
<path opacity="0.1" d="M206.517 75.0156H200.083V81.0834H206.517V75.0156Z" fill="#84AFD7"/>
<path opacity="0.1" d="M181.955 89.9824H175.521V96.0502H181.955V89.9824Z" fill="#84AFD7"/>
<path opacity="0.1" d="M206.517 89.9824H200.083V96.0502H206.517V89.9824Z" fill="#84AFD7"/>
<path opacity="0.1" d="M181.955 104.945H175.521V111.013H181.955V104.945Z" fill="#84AFD7"/>
<path opacity="0.1" d="M206.517 104.945H200.083V111.013H206.517V104.945Z" fill="#84AFD7"/>
<path opacity="0.1" d="M181.955 119.912H175.521V125.98H181.955V119.912Z" fill="#84AFD7"/>
<path opacity="0.1" d="M206.517 119.912H200.083V125.98H206.517V119.912Z" fill="#84AFD7"/>
<path opacity="0.1" d="M181.955 134.879H175.521V140.947H181.955V134.879Z" fill="#84AFD7"/>
<path opacity="0.1" d="M206.517 134.879H200.083V140.947H206.517V134.879Z" fill="#84AFD7"/>
<path opacity="0.1" d="M175.521 153.757V149.844H181.952V153.2L175.521 153.757Z" fill="#84AFD7"/>
<path opacity="0.1" d="M4.07227 63.6582V67.1295H26.0918V63.6582H4.07227ZM6.26676 66.9118H4.47044V63.8716H6.28033L6.26676 66.9118ZM8.45898 66.9118H6.6491V63.8716H8.45898V66.9118ZM10.6467 66.9118H8.8368V63.8716H10.6467V66.9118ZM12.8389 66.9118H11.0313V63.8716H12.8412L12.8389 66.9118ZM15.0289 66.9118H13.219V63.8716H15.0289V66.9118ZM17.2211 66.9118H15.4112V63.8716H17.2211V66.9118ZM19.4133 66.9118H17.6034V63.8716H19.4133V66.9118ZM21.6033 66.9118H19.7934V63.8716H21.6033V66.9118ZM23.7933 66.9118H21.9834V63.8716H23.7933V66.9118ZM25.9832 66.9118H24.1733V63.8716H25.9832V66.9118Z" fill="#84AFD7"/>
<path opacity="0.1" d="M4.07227 73.7578V77.2291H26.0918V73.7578H4.07227ZM6.26676 77.0093H4.47044V73.9776H6.28033L6.26676 77.0093ZM8.45898 77.0093H6.6491V73.9776H8.45898V77.0093ZM10.6467 77.0093H8.8368V73.9776H10.6467V77.0093ZM12.8389 77.0093H11.0313V73.9776H12.8412L12.8389 77.0093ZM15.0289 77.0093H13.219V73.9776H15.0289V77.0093ZM17.2211 77.0093H15.4112V73.9776H17.2211V77.0093ZM19.4133 77.0093H17.6034V73.9776H19.4133V77.0093ZM21.6033 77.0093H19.7934V73.9776H21.6033V77.0093ZM23.7933 77.0093H21.9834V73.9776H23.7933V77.0093ZM25.9832 77.0093H24.1733V73.9776H25.9832V77.0093Z" fill="#84AFD7"/>
<path opacity="0.1" d="M4.07227 83.8633V87.3409H26.0918V83.8633H4.07227ZM6.26676 87.1148H4.47044V84.0809H6.28033L6.26676 87.1148ZM8.45898 87.1148H6.6491V84.0809H8.45898V87.1148ZM10.6467 87.1148H8.8368V84.0809H10.6467V87.1148ZM12.8389 87.1148H11.0313V84.0809H12.8412L12.8389 87.1148ZM15.0289 87.1148H13.219V84.0809H15.0289V87.1148ZM17.2211 87.1148H15.4112V84.0809H17.2211V87.1148ZM19.4133 87.1148H17.6034V84.0809H19.4133V87.1148ZM21.6033 87.1148H19.7934V84.0809H21.6033V87.1148ZM23.7933 87.1148H21.9834V84.0809H23.7933V87.1148ZM25.9832 87.1148H24.1733V84.0809H25.9832V87.1148Z" fill="#84AFD7"/>
<path opacity="0.1" d="M4.07227 93.9668V97.4338H26.0918V93.9668H4.07227ZM6.26676 97.2183H4.47044V94.1823H6.28033L6.26676 97.2183ZM8.45898 97.2183H6.6491V94.1823H8.45898V97.2183ZM10.6467 97.2183H8.8368V94.1823H10.6467V97.2183ZM12.8389 97.2183H11.0313V94.1823H12.8412L12.8389 97.2183ZM15.0289 97.2183H13.219V94.1823H15.0289V97.2183ZM17.2211 97.2183H15.4112V94.1823H17.2211V97.2183ZM19.4133 97.2183H17.6034V94.1823H19.4133V97.2183ZM21.6033 97.2183H19.7934V94.1823H21.6033V97.2183ZM23.7933 97.2183H21.9834V94.1823H23.7933V97.2183ZM25.9832 97.2183H24.1733V94.1823H25.9832V97.2183Z" fill="#84AFD7"/>
<path opacity="0.1" d="M4.16699 104.07C4.25522 104.397 4.35477 104.723 4.45884 105.045V104.288H6.26872V107.322H5.30043C5.32984 107.392 5.35926 107.469 5.38867 107.535H26.0915V104.07H4.16699ZM8.46548 107.322H6.65559V104.288H8.46548V107.322ZM10.6532 107.322H8.84329V104.288H10.6532V107.322ZM12.8454 107.322H11.031V104.288H12.8409L12.8454 107.322ZM15.0354 107.322H13.2255V104.288H15.0354V107.322ZM17.2276 107.322H15.4177V104.288H17.2276V107.322ZM19.4198 107.322H17.6099V104.288H19.4198V107.322ZM21.6098 107.322H19.7999V104.288H21.6098V107.322ZM23.7998 107.322H21.9899V104.288H23.7998V107.322ZM25.9897 107.322H24.1798V104.288H25.9897V107.322Z" fill="#84AFD7"/>
<path opacity="0.1" d="M9.28027 114.174C9.33683 114.242 9.39113 114.319 9.44995 114.387H10.6467V115.844C10.7757 115.989 10.9024 116.135 11.0336 116.271V114.379H12.8435V117.423H12.1105C12.1829 117.494 12.253 117.568 12.3367 117.637H26.0987V114.174H9.28027ZM15.0289 117.423H13.219V114.391H15.0289V117.423ZM17.2212 117.423H15.4113V114.391H17.2212V117.423ZM19.4134 117.423H17.6035V114.391H19.4134V117.423ZM21.6034 117.423H19.7935V114.391H21.6034V117.423ZM23.7933 117.423H21.9834V114.391H23.7933V117.423ZM25.9833 117.423H24.1734V114.391H25.9833V117.423Z" fill="#84AFD7"/>
<path opacity="0.1" d="M21.3594 124.275C21.5652 124.386 21.7756 124.489 21.9883 124.6V124.493H23.7982V125.453L24.1828 125.622V124.493H25.9927V126.339C26.0274 126.355 26.0638 126.368 26.1013 126.377V124.275H21.3594Z" fill="#84AFD7"/>
<path opacity="0.1" d="M142.214 102.173C142.257 102.309 142.293 102.446 142.334 102.58C142.298 102.446 142.259 102.309 142.214 102.173ZM34.0439 39.2891V40.2001H44.1499V39.2891H34.0439ZM142.214 102.173C142.257 102.309 142.293 102.446 142.334 102.58C142.298 102.446 142.259 102.309 142.214 102.173ZM142.214 102.173C142.257 102.309 142.293 102.446 142.334 102.58C142.298 102.446 142.259 102.309 142.214 102.173Z" fill="#84AFD7"/>
<path d="M104.43 81.0029C104.43 81.0029 103.539 80.8856 103.539 79.661C103.539 78.4363 102.901 76.1492 102.901 76.1492C102.901 76.1385 102.349 72.1659 101.587 71.5343C100.824 70.9028 99.8447 67.1947 99.8447 67.1947C99.8447 67.1947 99.6772 65.1828 99.3356 64.7497C98.994 64.3166 98.5325 63.2562 97.8515 61.7436C97.1705 60.2309 94.3313 59.1833 94.3313 59.1833C94.3313 59.1833 89.198 56.3756 87.7433 55.4603C87.6111 55.3851 87.4875 55.2972 87.3745 55.1979C87.1211 54.8843 86.0171 54.8779 86.0171 54.8779C85.9017 54.1909 85.7909 53.4015 85.7547 52.6867C85.7547 52.6099 85.7547 52.5331 85.7433 52.4563C87.3654 51.5521 88.5872 50.1264 89.1844 48.441C89.2116 48.3599 89.2342 48.2746 89.2591 48.1935C89.3563 48.1633 89.4457 48.1143 89.5217 48.0497C89.5976 47.985 89.6584 47.9061 89.7002 47.818C89.8314 47.5428 89.8337 47.2206 89.9966 46.9646C90.1866 46.6616 90.5486 46.4995 90.8337 46.2712C91.5531 45.6951 91.7386 44.7244 91.7047 43.8411C91.682 43.1264 91.5599 42.4052 91.6074 41.6948L91.621 41.5156C91.6345 41.4089 91.6504 41.3022 91.6707 41.1998C91.7816 40.6707 92.0237 40.1714 92.1594 39.6466C92.2952 39.1217 92.3087 38.5307 91.992 38.0784C91.5282 37.4149 90.5622 37.2826 89.7138 37.2144C88.7523 37.1375 87.8926 37.2378 87.2772 36.4847C86.9892 36.0911 86.6652 35.722 86.3089 35.3817C86.1822 35.2707 84.9515 34.5624 84.9515 34.5154C83.7503 33.9908 82.3888 33.8923 81.1168 34.2381C80.4788 34.413 79.877 34.6989 79.23 34.8419C77.8341 35.1534 76.2279 34.8163 75.0424 35.5694C74.3818 35.9961 73.9859 36.6746 73.6148 37.336C73.3132 37.8807 73.007 38.4248 72.6963 38.9681C72.1963 39.8621 71.6873 40.7709 71.4769 41.7609C71.4327 41.9763 71.4054 42.1945 71.3955 42.4138V42.4244C71.3955 42.5034 71.3955 42.5823 71.3955 42.6613V42.7615C71.3955 42.8362 71.3955 42.9087 71.409 42.9749C71.4226 43.041 71.4203 43.0624 71.4271 43.1072C71.4339 43.152 71.4452 43.2522 71.4588 43.3205C71.4724 43.3888 71.4995 43.5083 71.5267 43.6021C71.538 43.6427 71.5538 43.6811 71.5674 43.7195C71.59 43.792 71.6172 43.8624 71.6466 43.9328C71.6624 43.9691 71.6782 44.0075 71.6963 44.0438C71.7303 44.1185 71.771 44.191 71.8117 44.2571C71.8298 44.287 71.8434 44.3147 71.8615 44.3425C71.9246 44.4417 71.9941 44.5372 72.0696 44.6284C72.5538 45.198 73.2664 45.5607 73.7936 46.0941C73.7936 46.1154 73.7936 46.1368 73.7936 46.156C73.7936 46.2157 73.7936 46.2733 73.7936 46.3331C73.8215 47.5226 74.1573 48.6877 74.7716 49.727C75.3859 50.7663 76.2601 51.6483 77.3183 52.2963C77.3183 52.3774 77.3296 52.4606 77.3342 52.5416C77.3783 53.1749 77.3699 53.8105 77.3093 54.4426C77.2171 54.3403 77.1018 54.2588 76.9718 54.2041C76.8418 54.1495 76.7004 54.1231 76.5582 54.1269C76.461 54.1224 76.3635 54.1303 76.2686 54.1503L76.2482 54.1354V54.1546C75.7505 54.2698 75.1374 54.7584 74.5514 56.1473C74.5514 56.1473 72.7687 58.0419 71.4113 57.9629C70.0539 57.884 66.6173 59.9343 66.6173 59.9343C66.6173 59.9343 63.2645 61.9868 62.5451 64.0776C62.143 65.2633 61.6609 66.4234 61.1017 67.551L56.9571 75.6051L56.1924 81.995C56.1924 81.995 56.6154 84.8369 56.5317 85.27C56.448 85.7031 58.2715 89.6096 58.2715 89.6096C58.2715 89.6096 64.2962 99.5924 66.7576 100.104L66.9341 99.9871C67.0394 100.039 67.1511 100.078 67.2666 100.104L67.7734 99.7673C67.8038 100.143 67.791 100.521 67.735 100.894C67.3956 101.88 67.8616 108.312 68.4544 109.573C69.0471 110.834 68.8367 127.367 68.8367 127.367L68.753 128.826C68.753 128.826 68.753 128.873 68.7734 128.954L68.753 129.3L68.8141 129.33C68.8775 129.792 68.8569 130.262 68.753 130.718C68.5404 131.359 68.4544 133.168 68.4544 133.168C68.4544 133.168 66.7599 143.383 67.563 145.436C68.3662 147.488 69.0494 149.737 69.0494 149.737C69.0494 149.737 69.8978 152.297 69.0901 152.734C68.2824 153.172 65.9861 153.906 66.459 154.972C66.8888 155.958 68.52 158.599 68.7621 158.986L68.7417 159.188L68.4091 162.587C68.463 163.036 68.592 163.474 68.7915 163.884C69.1557 164.625 69.8638 165.393 71.2099 165.309C71.4362 165.294 71.6986 165.269 71.952 165.237C74.4157 164.925 77.4495 163.888 77.4495 163.888C77.292 163.794 77.1476 163.682 77.0197 163.554C76.8986 163.443 76.8026 163.31 76.7377 163.163C76.6727 163.017 76.6401 162.859 76.6419 162.7C76.6781 162.081 75.4496 159.133 75.1442 158.407C75.0967 158.303 75.0718 158.243 75.0718 158.243C75.0718 158.243 77.8726 155.482 77.4066 153.035C77.4066 153.035 74.3071 151.328 75.3274 150.392C76.3478 149.455 78.1712 146.765 78.1712 146.765C78.1712 146.765 78.2549 136.705 78.1712 135.203C78.0839 134.161 78.1364 133.112 78.3273 132.082C78.3613 131.926 78.402 131.775 78.445 131.625C79.8561 131.824 81.2806 131.926 82.7073 131.93C83.2276 131.93 83.757 131.93 84.2909 131.9C84.2909 132.043 84.2977 132.196 84.3113 132.361C84.4289 134.853 84.6484 139.223 84.8271 140.846C85.0805 143.174 86.4809 149.447 86.4809 149.447C86.4809 149.447 83.809 151.064 86.9469 155.049C86.9469 155.049 86.9469 156.494 86.7388 156.703C86.5166 157.386 86.3375 158.082 86.2026 158.785C86.0714 159.536 86.0171 160.296 86.2298 160.69C86.7388 161.633 89.793 161.557 89.793 161.557L89.8676 161.544C90.4442 161.488 91.0269 161.54 91.5819 161.698C92.1369 161.856 92.6531 162.116 93.1006 162.463C94.2611 163.342 98.666 162.956 101.05 162.677C101.985 162.566 102.609 162.463 102.609 162.463C102.64 162.364 102.65 162.259 102.641 162.156C102.616 161.603 102.157 160.392 99.0438 159.31C99.0438 159.31 96.1163 157.454 96.157 155.837H96.0959H95.7566C96.0032 155.824 96.1615 155.837 96.1615 155.837C96.1615 155.837 95.0145 151.89 95.4828 151.569C95.9511 151.249 94.5485 146.876 94.5485 146.876C94.5485 146.876 93.7453 139.536 93.7023 139.022C93.7041 138.581 93.775 138.142 93.9127 137.721L93.7023 133.697C93.7023 133.697 93.6616 132.359 93.7023 131.924C93.6955 131.546 93.663 131.169 93.6051 130.795C93.5847 130.646 93.5643 130.49 93.5417 130.337C94.639 130.074 95.3516 129.831 95.3516 129.831L95.2249 115.824C96.157 114.117 96.3289 110.373 96.3244 107.717C96.3244 106.01 96.243 104.747 96.243 104.747L97.5167 102.786C97.5167 102.786 97.8108 100.439 97.3447 99.9252C97.1389 99.6927 97.2316 99.4516 97.4013 99.2532C97.4894 99.1873 97.5824 99.1274 97.6796 99.074C97.6796 99.074 97.666 99.0548 97.6502 99.027C97.7391 98.9569 97.8336 98.8935 97.933 98.8371C97.933 98.8371 97.4805 98.1757 97.8854 97.8962C98.2655 98.1395 98.6049 98.3229 98.8628 98.4723C98.8447 98.628 98.8266 98.7177 98.8266 98.7177L98.9352 98.5043C99.184 98.6366 99.3356 98.7177 99.3356 98.7177C99.3356 98.7177 101.331 94.969 101.288 94.4165C101.245 93.8639 102.645 91.5362 102.645 91.5362C102.645 91.5362 102.815 90.3137 103.58 89.8016C104.344 89.2896 104.173 85.5794 104.173 85.5794C104.173 85.5794 104.385 83.6464 104.894 82.857C105.403 82.0676 104.43 81.0029 104.43 81.0029ZM66.2508 79.358L66.2893 80.2519C66.0631 79.9084 65.9002 79.661 65.9002 79.661L66.2508 79.358Z" fill="url(#paint0_linear_430_2248)"/>
<path d="M99.4442 97.1L98.9556 99.0629C98.9556 99.0629 95.0417 97.179 94.3358 94.7851C93.63 92.3913 95.5168 91.4824 95.5168 91.4824L99.1637 92.9396L99.4442 97.1Z" fill="white"/>
<path opacity="0.1" d="M99.4442 97.1L98.9556 99.0629C98.9556 99.0629 95.0417 97.179 94.3358 94.7851C93.63 92.3913 95.5168 91.4824 95.5168 91.4824L99.1637 92.9396L99.4442 97.1Z" fill="black"/>
<path d="M77.4789 163.901C77.4789 163.901 73.8591 165.156 71.3705 165.314C70.0493 165.397 69.3548 164.633 68.9973 163.897C68.802 163.488 68.6761 163.052 68.624 162.606L68.9475 159.225L69.1195 157.424L74.4066 156.129L75.1555 158.288L75.2256 158.452C75.5265 159.173 76.7323 162.107 76.6961 162.719C76.6946 162.876 76.7267 163.032 76.7905 163.176C76.8543 163.321 76.9484 163.452 77.0672 163.562C77.1886 163.691 77.3269 163.805 77.4789 163.901Z" fill="white"/>
<path d="M102.204 162.183C102.214 162.286 102.203 162.389 102.173 162.488C102.173 162.488 94.431 163.706 92.8473 162.488C92.4008 162.132 91.8804 161.868 91.3193 161.713C90.7583 161.558 90.1691 161.516 89.5895 161.588C89.5895 161.588 86.5942 161.665 86.0942 160.734C85.886 160.344 85.9403 159.587 86.0693 158.84C86.2008 158.14 86.3761 157.448 86.5942 156.768L86.7141 156.679L87.4267 156.139L95.7703 155.906H95.8336C95.7929 157.515 98.6661 159.36 98.6661 159.36C101.718 160.427 102.168 161.633 102.204 162.183Z" fill="white"/>
<path opacity="0.1" d="M102.204 162.183C102.212 162.286 102.201 162.389 102.17 162.488C102.17 162.488 94.4308 163.706 92.8471 162.488C92.4009 162.133 91.8808 161.869 91.3202 161.714C90.7596 161.559 90.1708 161.516 89.5916 161.588C89.5916 161.588 86.5939 161.665 86.0962 160.734C85.8881 160.342 85.9401 159.587 86.0691 158.84C87.2229 158.949 89.0441 159.22 89.759 159.866C90.8404 160.85 92.6729 161.831 93.7973 161.908C94.6773 161.961 99.9419 162.119 102.204 162.183Z" fill="black"/>
<path opacity="0.1" d="M77.4793 163.903C77.4793 163.903 73.8595 165.157 71.371 165.315C70.0497 165.398 69.3552 164.635 69 163.896C69.9208 164.189 71.199 164.496 71.8709 164.214C72.6673 163.881 75.4907 163.666 77.0744 163.574C77.1949 163.699 77.3309 163.809 77.4793 163.903Z" fill="black"/>
<path d="M82.8496 62.8051C79.8633 61.7106 76.0218 58.0943 76.981 56.4045C77.1941 55.9781 77.3207 55.5179 77.3543 55.0476C77.416 54.4091 77.4251 53.7672 77.3814 53.1274C77.3142 52.0796 77.1805 51.0366 76.981 50.0039C76.981 50.0039 86.3042 50.2023 85.7612 51.4974C85.6029 51.8771 85.578 52.5364 85.621 53.2746C85.664 54.0128 85.7771 54.847 85.8947 55.5532C86.0576 56.5218 86.2205 57.26 86.2205 57.26C86.2205 57.26 85.6504 58.0132 85.3155 58.0537C84.9807 58.0943 87.1345 64.3647 82.8496 62.8051Z" fill="#CF6F80"/>
<path opacity="0.1" d="M75.2195 158.452L75.1493 158.525C72.3621 155.346 68.9912 159.308 68.9912 159.308L68.9414 159.225L69.1133 157.424L74.4005 156.129L75.1493 158.288L75.2195 158.452Z" fill="black"/>
<path opacity="0.1" d="M95.8362 156.129C95.8362 156.129 93.8 156.088 92.7141 156.993C91.6282 157.898 86.3795 157.189 86.6057 156.993C86.6728 156.896 86.7132 156.784 86.7234 156.669L87.436 156.129L95.7796 155.896C95.8113 156.039 95.8362 156.129 95.8362 156.129Z" fill="black"/>
<path d="M78.6877 131.165C78.536 131.518 78.4209 131.885 78.3438 132.259C78.1551 133.285 78.1027 134.328 78.1877 135.366C78.2714 136.859 78.1877 146.868 78.1877 146.868C78.1877 146.868 76.3981 149.537 75.4004 150.478C74.4027 151.419 77.4366 153.108 77.4366 153.108C77.889 155.54 75.1471 158.288 75.1471 158.288C72.3598 155.11 68.9889 159.074 68.9889 159.074C68.9889 159.074 67.1564 156.087 66.6994 155.02C66.2424 153.953 68.4889 153.215 69.2785 152.782C70.0681 152.349 69.24 149.795 69.24 149.795C69.24 149.795 68.5726 147.557 67.7808 145.515C66.989 143.473 68.6541 133.309 68.6541 133.309C68.6541 133.309 68.7401 131.504 68.9459 130.875C69.0498 130.421 69.0705 129.953 69.007 129.492C68.9934 129.336 68.9776 129.206 68.9663 129.119C68.955 129.031 68.9459 128.991 68.9459 128.991L68.9776 128.94L70.1088 126.951C70.1088 126.951 79.2306 129.913 78.6877 131.165Z" fill="#84AFD7"/>
<path d="M95.8362 155.896C95.8362 155.896 93.8 155.855 92.7141 156.749C91.6282 157.643 86.3795 156.946 86.6057 156.749C86.832 156.553 86.8139 155.1 86.8139 155.1C83.7348 151.136 86.3614 149.527 86.3614 149.527C86.3614 149.527 84.9859 143.287 84.737 140.972C84.5628 139.355 84.3479 135.009 84.2325 132.527C84.1827 131.461 84.1533 130.727 84.1533 130.727L86.6691 130.249L86.9926 130.187L93.0602 129.039C93.0602 129.039 93.2277 130.106 93.3408 130.978C93.3972 131.351 93.4289 131.727 93.4358 132.103C93.3951 132.53 93.4358 133.865 93.4358 133.865L93.6417 137.87C93.5072 138.29 93.4378 138.726 93.4358 139.165C93.4765 139.675 94.2661 146.976 94.2661 146.976C94.2661 146.976 95.6393 151.332 95.171 151.646C94.7027 151.96 95.8362 155.896 95.8362 155.896Z" fill="#84AFD7"/>
<path opacity="0.1" d="M85.7617 51.4974C85.6033 51.8771 85.5784 52.5364 85.6214 53.2746C84.3726 53.9838 82.937 54.3464 81.4795 54.3207C80.022 54.2951 78.6017 53.8822 77.3819 53.1295C77.3147 52.081 77.181 51.0373 76.9814 50.0039C76.9814 50.0039 86.3046 50.1981 85.7617 51.4974Z" fill="black"/>
<path d="M89.366 46.7812C89.3678 47.55 89.2395 48.3142 88.9859 49.0449C88.4191 50.6821 87.2568 52.0776 85.7045 52.9848C84.1521 53.892 82.3097 54.2525 80.5028 54.0025C78.6959 53.7526 77.0408 52.9083 75.8302 51.6189C74.6195 50.3294 73.9312 48.6779 73.8869 46.9562C73.8869 46.8964 73.8869 46.841 73.8869 46.7812C73.8693 45.8121 74.0565 44.8493 74.4377 43.9492C74.8188 43.049 75.3861 42.2294 76.1067 41.5382C76.8272 40.847 77.6865 40.298 78.6343 39.9232C79.5822 39.5485 80.5997 39.3555 81.6275 39.3555C82.6554 39.3555 83.6729 39.5485 84.6207 39.9232C85.5686 40.298 86.4279 40.847 87.1484 41.5382C87.8689 42.2294 88.4363 43.049 88.8174 43.9492C89.1985 44.8493 89.3858 45.8121 89.3682 46.7812H89.366Z" fill="#CF6F80"/>
<path opacity="0.1" d="M82.8496 62.8044C79.8633 61.7099 76.0218 58.0936 76.981 56.4038C77.1941 55.9774 77.3207 55.5172 77.3543 55.0469L81.4424 58.2152L83.9717 60.1716L85.8947 55.5546C86.0576 56.5233 86.2205 57.2615 86.2205 57.2615C86.2205 57.2615 85.6504 58.0146 85.3155 58.0551C84.9807 58.0957 87.1345 64.364 82.8496 62.8044Z" fill="black"/>
<path d="M93.4216 76.8061L90.0077 130.891L85.5554 131.166L74.0264 99.8056L75.9177 62.5734L76.3159 54.707L81.4424 58.6775L83.974 60.634L85.9535 55.8826L89.6344 58.9079L93.4216 76.8061Z" fill="#84AFD7"/>
<path opacity="0.1" d="M78.6867 131.165C78.5351 131.519 78.4199 131.885 78.3429 132.26C75.1031 131.788 71.9567 130.861 69.0083 129.51L68.9473 129.48L68.9676 129.136L68.9789 128.957L70.1101 126.969C70.1101 126.969 79.2297 129.913 78.6867 131.165Z" fill="black"/>
<path opacity="0.1" d="M86.721 132.268C85.8928 132.4 85.0575 132.49 84.2188 132.536C84.1691 131.47 84.1396 130.736 84.1396 130.736L86.6554 130.258L86.721 132.268Z" fill="black"/>
<path opacity="0.1" d="M93.3267 130.988C91.7182 131.383 89.2341 131.827 87.0102 131.549L86.9785 130.197L93.0462 129.049C93.0462 129.049 93.2136 130.105 93.3267 130.988Z" fill="black"/>
<path opacity="0.1" d="M86.9695 131.796C77.6938 133.289 69.1987 129.007 69.1987 129.007L69.2801 127.557C69.2801 127.557 69.4905 111.109 68.9068 109.848C68.3231 108.587 67.8684 102.193 68.1987 101.212C68.529 100.23 66.9929 85.5132 66.9929 85.5132L66.744 79.5393L57.6357 76.0595L61.708 68.0545C62.258 66.9322 62.7311 65.7777 63.1242 64.5982C63.8324 62.5201 67.1196 60.4783 67.1196 60.4783C67.1196 60.4783 70.4905 58.4387 71.823 58.5155C73.1555 58.5923 74.9021 56.7105 74.9021 56.7105C76.1916 53.6105 77.359 55.0144 77.359 55.0144C77.359 55.1616 77.359 55.0144 77.2957 55.4731C76.8432 58.8761 84.6121 69.6291 84.723 69.8189L85.4628 86.8146L86.2116 108.323L86.9695 131.796Z" fill="black"/>
<path d="M86.7204 131.797C77.4448 133.29 68.9473 129.008 68.9473 129.008L69.031 127.558C69.031 127.558 69.2414 111.11 68.6555 109.849C68.0695 108.588 67.6171 102.194 67.9496 101.213C68.2822 100.231 66.7438 85.5143 66.7438 85.5143L66.4927 79.5404L57.3799 76.0478L61.4521 68.0428C62.001 66.92 62.474 65.7656 62.8684 64.5865C63.5742 62.5084 66.8637 60.4666 66.8637 60.4666C66.8637 60.4666 70.2346 58.427 71.5649 58.5038C72.8952 58.5806 74.644 56.6988 74.644 56.6988C75.9358 53.5988 77.3588 55.0026 77.3588 55.0026C77.3588 55.1499 77.2231 55.216 77.2955 55.4613C78.2909 58.7619 84.3631 69.6173 84.4739 69.8072L85.2228 86.8029L85.9716 108.311L86.7204 131.797Z" fill="white"/>
<path opacity="0.1" d="M84.2207 70.2915C83.223 69.8989 77.9381 64.2088 77.9381 64.2088V62.9137C77.7458 62.487 76.6033 62.7473 75.6758 63.046L76.074 55.1797L76.5264 55.5339C77.5173 58.8323 84.1053 70.1016 84.2207 70.2915Z" fill="black"/>
<path d="M84.472 69.8188C83.472 69.4263 78.1872 63.7361 78.1872 63.7361V62.4411C77.9949 62.0144 76.8524 62.2747 75.9248 62.5734L76.3252 54.707L76.7777 55.0612C77.7709 58.3596 84.3611 69.6311 84.472 69.8188Z" fill="white"/>
<path opacity="0.1" d="M69.1985 98.1976C69.3229 98.1976 75.6485 97.5703 75.6485 97.5703C75.6485 97.5703 79.4787 104.673 79.2275 106.401C78.9764 108.129 78.5217 109.659 76.981 109.388C75.4403 109.117 68.6895 109.601 68.6895 109.601L69.1985 98.1976Z" fill="black"/>
<path d="M68.9475 97.7269C69.0719 97.7269 75.3975 97.0996 75.3975 97.0996C75.3975 97.0996 79.2254 104.204 78.9766 105.93C78.7277 107.656 78.2684 109.188 76.73 108.917C75.1916 108.646 68.4385 109.131 68.4385 109.131L68.9475 97.7269Z" fill="white"/>
<path d="M73.715 94.3926C73.715 94.3926 79.5202 97.3347 79.6447 98.2329C79.7691 99.1312 76.69 97.8404 76.0249 97.6846C75.5871 97.5851 75.1415 97.5195 74.6924 97.4883L70.2559 97.6014L73.715 94.3926Z" fill="#CF6F80"/>
<path opacity="0.1" d="M82.6011 70.658C82.9384 70.658 83.2119 70.4001 83.2119 70.0819C83.2119 69.7638 82.9384 69.5059 82.6011 69.5059C82.2637 69.5059 81.9902 69.7638 81.9902 70.0819C81.9902 70.4001 82.2637 70.658 82.6011 70.658Z" fill="black"/>
<path d="M82.6011 70.4236C82.9384 70.4236 83.2119 70.1657 83.2119 69.8475C83.2119 69.5294 82.9384 69.2715 82.6011 69.2715C82.2637 69.2715 81.9902 69.5294 81.9902 69.8475C81.9902 70.1657 82.2637 70.4236 82.6011 70.4236Z" fill="#3F3D56"/>
<path opacity="0.1" d="M83.7251 95.5955C84.0624 95.5955 84.3359 95.3376 84.3359 95.0194C84.3359 94.7013 84.0624 94.4434 83.7251 94.4434C83.3877 94.4434 83.1143 94.7013 83.1143 95.0194C83.1143 95.3376 83.3877 95.5955 83.7251 95.5955Z" fill="black"/>
<path d="M83.7251 95.3591C84.0624 95.3591 84.3359 95.1012 84.3359 94.7831C84.3359 94.4649 84.0624 94.207 83.7251 94.207C83.3877 94.207 83.1143 94.4649 83.1143 94.7831C83.1143 95.1012 83.3877 95.3591 83.7251 95.3591Z" fill="#3F3D56"/>
<path opacity="0.1" d="M83.2095 83.1267C83.5468 83.1267 83.8203 82.8688 83.8203 82.5507C83.8203 82.2325 83.5468 81.9746 83.2095 81.9746C82.8721 81.9746 82.5986 82.2325 82.5986 82.5507C82.5986 82.8688 82.8721 83.1267 83.2095 83.1267Z" fill="black"/>
<path d="M83.2095 82.8923C83.5468 82.8923 83.8203 82.6344 83.8203 82.3163C83.8203 81.9981 83.5468 81.7402 83.2095 81.7402C82.8721 81.7402 82.5986 81.9981 82.5986 82.3163C82.5986 82.6344 82.8721 82.8923 83.2095 82.8923Z" fill="#3F3D56"/>
<path d="M97.2904 97.3689C97.2904 97.3689 97.7066 97.9577 97.2904 98.233C96.8741 98.5082 97.3311 99.1739 97.3311 99.1739C97.3311 99.1739 96.2927 99.7478 96.7497 100.264C97.2067 100.78 96.9171 103.112 96.9171 103.112L95.6682 105.062C95.6682 105.062 95.7429 106.319 95.7474 108.017C95.7474 110.667 95.5823 114.392 94.6683 116.091L94.795 130.025C94.795 130.025 90.4218 131.531 86.7613 131.072L86.2184 108.713C86.2184 108.713 87.0102 96.0333 87.302 93.6011C87.4728 92.3384 87.5424 91.0653 87.5102 89.7927C87.5102 89.7927 87.3857 85.9865 86.9672 84.2199C86.9672 84.2199 86.5147 76.567 86.4695 74.4484C86.4491 73.4349 86.5057 70.4779 86.569 67.6659C86.6392 64.5914 86.7183 61.692 86.7183 61.692L85.8926 55.5303C85.8926 55.5303 86.7183 55.4514 86.9672 55.765C87.0787 55.8632 87.1999 55.9511 87.3292 56.0275C88.7545 56.9363 93.7905 59.7313 93.7905 59.7313C93.7905 59.7313 96.5777 60.7767 97.2451 62.2744C97.9125 63.7722 98.3763 64.8347 98.6998 65.2614C99.0233 65.6881 99.1998 67.6936 99.1998 67.6936C99.1998 67.6936 100.159 71.3846 100.908 72.0097C101.657 72.6349 102.204 76.6118 102.204 76.6118L95.5868 81.5189C95.5868 81.5189 95.0054 89.6818 94.8809 89.9975C94.7565 90.3133 97.2904 97.3689 97.2904 97.3689Z" fill="white"/>
<path d="M97.5417 97.3685C97.5417 97.3685 97.9557 97.9573 97.5417 98.2326C97.1277 98.5078 97.5802 99.1734 97.5802 99.1734C97.5802 99.1734 96.5485 99.7538 97.001 100.27C97.4535 100.786 97.1684 103.118 97.1684 103.118L95.9196 105.068C95.9196 105.068 95.9942 106.325 96.001 108.023C96.001 110.673 95.8359 114.398 94.9219 116.097L95.0463 130.031C95.0463 130.031 90.6664 131.537 87.0104 131.078L86.4697 108.719C86.4697 108.719 87.2615 96.0393 87.5534 93.6071C87.7243 92.3444 87.7932 91.0712 87.7592 89.7987C87.7592 89.7987 87.6348 85.9925 87.2185 84.2259C87.2185 84.2259 86.7661 76.5729 86.7186 74.4544C86.6982 73.4409 86.757 70.4838 86.8181 67.6719C86.8882 64.5974 86.9674 61.698 86.9674 61.698L85.877 55.4531C85.877 55.4531 86.9674 55.4531 87.2185 55.771C87.329 55.8704 87.4503 55.9584 87.5805 56.0334C89.0058 56.9423 94.0441 59.7373 94.0441 59.7373C94.0441 59.7373 96.829 60.7827 97.4964 62.2804C98.1638 63.7782 98.6276 64.8407 98.9534 65.2674C99.2792 65.6941 99.4511 67.6996 99.4511 67.6996C99.4511 67.6996 100.41 71.3906 101.159 72.0157C101.908 72.6409 102.449 76.6092 102.449 76.6092L95.8313 81.5163C95.8313 81.5163 95.2499 89.6792 95.1232 89.995C94.9965 90.3108 97.5417 97.3685 97.5417 97.3685Z" fill="white"/>
<path opacity="0.1" d="M89.6165 63.5089L90.2138 65.1517L87.0691 68.1387C87.1392 65.0664 87.2184 62.1648 87.2184 62.1648L86.1279 55.9199C86.1279 55.9199 87.2184 55.9199 87.4695 56.2378C87.5796 56.3369 87.701 56.4242 87.8315 56.4981L90.5056 63.7734L89.6165 63.5089Z" fill="black"/>
<path d="M89.3655 63.0382L89.965 64.681L86.8204 67.668C86.8905 64.5935 86.9697 61.6941 86.9697 61.6941L85.877 55.4492C85.877 55.4492 86.9697 55.4492 87.2185 55.7671C87.3295 55.8659 87.4508 55.9538 87.5805 56.0295L90.2569 63.3027L89.3655 63.0382Z" fill="white"/>
<path opacity="0.1" d="M89.366 46.7812C89.3678 47.55 89.2395 48.3142 88.9859 49.0449C88.9431 49.0512 88.8995 49.0493 88.8575 49.0394C88.8156 49.0295 88.7761 49.0118 88.7415 48.9873C88.6827 47.0671 87.6805 45.2643 86.4475 43.7303C86.1013 43.2671 85.6817 42.8569 85.2032 42.5142C84.7195 42.1715 84.1178 42.0111 83.5155 42.064C82.8368 42.1514 82.2373 42.5867 81.5518 42.6422C80.6468 42.7126 79.8369 42.1216 78.9387 42.0917C78.5736 42.095 78.2134 42.1717 77.8822 42.3166C77.551 42.4616 77.2564 42.6715 77.018 42.9323C76.5461 43.4587 76.1956 44.072 75.9886 44.733C75.6329 45.7354 75.4392 46.7826 75.414 47.8394C75.4027 48.4368 75.3416 49.1857 74.7534 49.4033C74.7976 48.964 74.7447 48.5208 74.5979 48.1017C74.4511 47.6827 74.2136 47.2969 73.9005 46.969L73.8869 46.9562C73.8869 46.8964 73.8869 46.841 73.8869 46.7812C73.8693 45.8121 74.0565 44.8493 74.4377 43.9492C74.8188 43.049 75.3861 42.2294 76.1067 41.5382C76.8272 40.847 77.6865 40.298 78.6343 39.9232C79.5822 39.5485 80.5997 39.3555 81.6275 39.3555C82.6554 39.3555 83.6729 39.5485 84.6207 39.9232C85.5686 40.298 86.4279 40.847 87.1484 41.5382C87.8689 42.2294 88.4363 43.049 88.8174 43.9492C89.1985 44.8493 89.3858 45.8121 89.3682 46.7812H89.366Z" fill="black"/>
<path d="M84.8313 35.191C83.6557 34.6695 82.3185 34.5708 81.0712 34.9136C80.4446 35.0886 79.8541 35.3723 79.2184 35.5153C77.861 35.8247 76.2773 35.4897 75.1122 36.2386C74.4651 36.6653 74.076 37.3395 73.714 37.9945L72.8091 39.6202C72.3159 40.5099 71.8182 41.4145 71.6123 42.3938C71.4064 43.3731 71.5309 44.4697 72.1892 45.257C72.6688 45.8309 73.377 46.1915 73.8973 46.7313C74.209 47.0596 74.4455 47.4451 74.5919 47.8636C74.7382 48.2822 74.7914 48.7247 74.7479 49.1635C75.3384 48.9501 75.395 48.1991 75.4086 47.6017C75.4338 46.5449 75.6275 45.4977 75.9832 44.4953C76.1897 43.8341 76.5403 43.2207 77.0126 42.6946C77.2511 42.434 77.5458 42.2242 77.877 42.0793C78.2081 41.9343 78.5682 41.8576 78.9333 41.854C79.8383 41.8839 80.6504 42.4727 81.5463 42.4023C82.225 42.349 82.8268 41.9116 83.5101 41.8263C84.1125 41.7725 84.7145 41.9331 85.1978 42.2764C85.6761 42.6187 86.0951 43.029 86.4398 43.4926C87.6751 45.0266 88.6773 46.8251 88.7361 48.7496C88.9918 48.9267 89.3605 48.6962 89.4872 48.4232C89.6139 48.1501 89.6184 47.83 89.7791 47.5697C89.9646 47.2689 90.3198 47.1089 90.598 46.8827C91.3039 46.3088 91.4804 45.3423 91.4532 44.4655C91.4261 43.5886 91.2451 42.6989 91.4215 41.8369C91.5279 41.3078 91.7677 40.8128 91.8989 40.2901C92.0301 39.7674 92.046 39.1807 91.736 38.7305C91.2835 38.0691 90.3311 37.939 89.5008 37.8771C88.5574 37.8003 87.7135 37.8984 87.1117 37.1496C86.8293 36.7588 86.5113 36.3919 86.1616 36.0529C86.0416 35.942 84.8313 35.2379 84.8313 35.191Z" fill="#512E4E"/>
<path opacity="0.1" d="M60.2419 80.1825L57.8777 76.0605L57.1289 82.4206C57.1289 82.4206 57.5452 85.2454 57.4615 85.6785C57.3778 86.1116 59.1673 89.9946 59.1673 89.9946C59.1673 89.9946 65.0788 99.9241 67.4928 100.436L75.6486 94.9402L73.4858 92.3501C73.4858 92.3501 72.7369 92.0748 72.5492 92.3501C72.5492 92.3501 68.5335 85.8343 68.1172 85.3627C67.7009 84.8912 67.7824 83.9503 67.7824 83.9503C67.7824 83.9503 67.158 83.3231 67.3661 82.7342C67.5742 82.1454 66.1602 80.1036 66.1602 80.1036L67.4498 78.9664L60.2419 80.1825Z" fill="black"/>
<path d="M58.0022 75.5918L57.3777 76.0612L56.6289 82.4212C56.6289 82.4212 57.0452 85.246 56.9615 85.6791C56.8778 86.1122 58.6696 89.9953 58.6696 89.9953C58.6696 89.9953 64.5788 99.9247 66.9928 100.437L75.1509 94.9408L72.9858 92.3507C72.9858 92.3507 72.2369 92.0755 72.0492 92.3507C72.0492 92.3507 68.0335 85.8349 67.6172 85.3634C67.2009 84.8919 67.2846 83.951 67.2846 83.951C67.2846 83.951 66.6602 83.3237 66.8684 82.7349C67.0765 82.146 65.6603 80.1042 65.6603 80.1042L66.9498 78.967L58.0022 75.5918Z" fill="white"/>
<path opacity="0.1" d="M96.7502 100.507C97.2026 101.025 96.9176 103.353 96.9176 103.353L95.6687 105.303C95.6687 105.303 95.7434 106.562 95.7479 108.258L93.6485 108.877C93.4587 108.933 93.2576 108.945 93.0618 108.913C92.866 108.88 92.6812 108.804 92.5229 108.691C92.3646 108.577 92.2374 108.43 92.1518 108.261C92.0662 108.092 92.0247 107.906 92.0309 107.718L92.3929 96.707L97.2909 98.4736C96.8746 98.7467 97.3316 99.4166 97.3316 99.4166C97.3316 99.4166 96.2932 99.9884 96.7502 100.507Z" fill="black"/>
<path d="M97.0014 100.27C97.4539 100.789 97.1688 103.119 97.1688 103.119L95.92 105.069C95.92 105.069 95.9946 106.325 96.0014 108.024L93.8635 108.653C93.6777 108.707 93.4808 108.719 93.2891 108.687C93.0975 108.656 92.9167 108.581 92.7618 108.47C92.6068 108.359 92.4823 108.215 92.3985 108.049C92.3146 107.883 92.274 107.701 92.2799 107.518L92.6441 96.4727L97.5444 98.2392C97.1258 98.5123 97.5828 99.1801 97.5828 99.1801C97.5828 99.1801 96.5489 99.754 97.0014 100.27Z" fill="white"/>
<path d="M98.6235 95.0207C98.6235 95.0207 98.2909 97.0241 97.4584 97.1414C96.6258 97.2588 96.2525 100.382 95.4222 100.271C94.592 100.16 95.1417 97.3676 95.1711 96.8257C95.2005 96.2838 94.2662 94.0393 94.9652 93.5294C95.6643 93.0194 97.8769 93.5294 97.8769 93.5294L98.6235 95.0207Z" fill="#CF6F80"/>
<path opacity="0.1" d="M100.395 79.5944L101.965 76.6074C101.965 76.6074 102.589 78.8839 102.589 80.1C102.589 81.3161 103.462 81.4356 103.462 81.4356C103.462 81.4356 104.419 82.5024 103.915 83.279C103.41 84.0556 103.207 85.9886 103.207 85.9886C103.207 85.9886 103.372 89.6774 102.623 90.1873C101.874 90.6973 101.718 91.9155 101.718 91.9155C101.718 91.9155 100.343 94.2304 100.386 94.7808C100.429 95.3313 98.4716 99.0586 98.4716 99.0586C98.4716 99.0586 99.4286 94.4267 93.8518 92.4254C93.8518 92.4254 93.8089 90.853 94.2251 90.422C94.6414 89.9911 95.2907 89.7948 94.8835 87.6164C94.4763 85.4381 94.7658 82.8352 94.7658 82.3125C94.7658 81.7898 96.0147 78.5297 96.0147 78.5297L100.395 79.5944Z" fill="black"/>
<path d="M101.073 76.1797L102.444 76.6064C102.444 76.6064 103.071 78.8829 103.071 80.099C103.071 81.3151 103.944 81.4346 103.944 81.4346C103.944 81.4346 104.901 82.5013 104.396 83.2779C103.892 84.0545 103.691 85.9875 103.691 85.9875C103.691 85.9875 103.856 89.6764 103.107 90.1863C102.358 90.6962 102.191 91.9145 102.191 91.9145C102.191 91.9145 100.817 94.2294 100.86 94.7798C100.903 95.3303 98.9441 99.0575 98.9441 99.0575C98.9441 99.0575 99.9033 94.4256 94.3243 92.4244C94.3243 92.4244 94.2836 90.852 94.6999 90.421C95.1162 89.99 95.7655 89.7937 95.3582 87.6154C94.951 85.4371 95.2406 82.8342 95.2406 82.3115C95.2406 81.7887 96.4894 78.5287 96.4894 78.5287L101.073 76.1797Z" fill="white"/>
<path opacity="0.1" d="M70.792 153.599C70.792 153.599 72.9774 152.304 74.4118 153.245C75.8461 154.186 70.792 153.599 70.792 153.599Z" fill="black"/>
<path opacity="0.1" d="M87.7725 149.596C87.7725 149.596 89.7068 149.361 91.3312 151.01C92.9555 152.659 87.7725 149.596 87.7725 149.596Z" fill="black"/>
<g opacity="0.1">
<path d="M90.6034 46.416C90.3251 46.6422 89.9677 46.8043 89.7822 47.1052C89.6238 47.3633 89.6193 47.6812 89.4926 47.9586C89.3659 48.2359 88.9971 48.4621 88.7415 48.2872C88.6826 46.367 87.6782 44.5641 86.4452 43.028C86.1004 42.5644 85.6814 42.1541 85.2031 41.8119C84.7189 41.4686 84.1163 41.308 83.5132 41.3617C82.8344 41.4492 82.2372 41.8844 81.5517 41.9378C80.6467 42.0103 79.8346 41.4193 78.9364 41.3894C78.5714 41.3929 78.2114 41.4698 77.8805 41.6152C77.5496 41.7605 77.2555 41.9709 77.0179 42.2322C76.5456 42.7575 76.195 43.3701 75.9885 44.0308C75.633 45.0332 75.4393 46.0804 75.4139 47.1372C75.4003 47.7324 75.3415 48.4749 74.7578 48.6968C74.7714 48.8544 74.7714 49.0128 74.7578 49.1704C75.346 48.9571 75.4049 48.2061 75.4184 47.6087C75.4436 46.5519 75.6374 45.5047 75.9931 44.5023C76.1996 43.841 76.5502 43.2277 77.0224 42.7016C77.2606 42.441 77.5548 42.2312 77.8856 42.0863C78.2164 41.9413 78.5762 41.8645 78.9409 41.861C79.8459 41.8908 80.6603 42.4797 81.5562 42.4093C82.2349 42.3559 82.8367 41.9186 83.5177 41.8332C84.1208 41.7795 84.7234 41.9401 85.2077 42.2834C85.686 42.6257 86.105 43.0359 86.4497 43.4995C87.6827 45.0335 88.6872 46.8321 88.746 48.7565C89.0016 48.9336 89.3704 48.7032 89.4971 48.4301C89.6238 48.157 89.6283 47.837 89.7867 47.5767C89.9722 47.2759 90.3296 47.1158 90.6079 46.8897C91.3138 46.3158 91.4902 45.3493 91.4631 44.4724C91.4631 44.4447 91.4631 44.4169 91.4631 44.3913C91.4201 45.1509 91.2052 45.9253 90.6034 46.416Z" fill="black"/>
<path d="M73.9024 46.2644C73.3821 45.7246 72.6717 45.3641 72.1943 44.7923C71.7924 44.2861 71.5628 43.6768 71.536 43.0449C71.4648 43.8345 71.6986 44.6218 72.1943 45.2617C72.6717 45.8356 73.3821 46.1961 73.9024 46.7359C74.402 47.2639 74.7019 47.9332 74.7553 48.639C74.7899 48.2095 74.7323 47.7777 74.5857 47.3697C74.4391 46.9616 74.2067 46.5857 73.9024 46.2644Z" fill="black"/>
<path d="M91.9041 39.8228C91.7706 40.3455 91.5331 40.8427 91.4245 41.3696C91.3602 41.7218 91.3366 42.0795 91.3543 42.4364C91.3619 42.2331 91.3853 42.0306 91.4245 41.8305C91.5331 41.3014 91.7706 40.8064 91.9041 40.2837C91.9819 39.9954 92.0071 39.6967 91.9787 39.4004C91.9647 39.5427 91.9397 39.6839 91.9041 39.8228Z" fill="black"/>
</g>
<path opacity="0.1" d="M30.0278 162.274C42.2027 162.274 52.0723 160.779 52.0723 158.935C52.0723 157.091 42.2027 155.596 30.0278 155.596C17.853 155.596 7.9834 157.091 7.9834 158.935C7.9834 160.779 17.853 162.274 30.0278 162.274Z" fill="#84AFD7"/>
<path d="M30.7388 94.9727H29.3203V125.092H30.7388V94.9727Z" fill="#535461"/>
<path d="M39.6529 124.999L39.5646 126.356L39.4379 128.276L39.3859 129.074L39.2615 130.994L39.2072 131.792L39.0805 133.712L37.6507 155.489C37.5885 156.426 37.1501 157.306 36.4247 157.949C35.6993 158.591 34.7413 158.95 33.7458 158.95H26.3117C25.3165 158.95 24.3588 158.591 23.6337 157.948C22.9086 157.305 22.4707 156.426 22.4091 155.489L20.9861 133.697L20.8594 131.777L20.8074 130.979L20.6807 129.059L20.6287 128.261L20.502 126.341L20.4115 124.984C20.3958 124.723 20.4368 124.461 20.532 124.216C20.6273 123.97 20.7748 123.745 20.9655 123.555C21.1561 123.365 21.3859 123.214 21.6408 123.111C21.8957 123.008 22.1702 122.955 22.4476 122.955H37.6529C37.9293 122.957 38.2022 123.013 38.4548 123.119C38.7075 123.224 38.9345 123.377 39.1219 123.569C39.3093 123.76 39.4531 123.986 39.5444 124.232C39.6358 124.478 39.6727 124.739 39.6529 124.999Z" fill="#3F3D56"/>
<path d="M39.5639 126.355L39.4372 128.269H20.6189L20.4922 126.355H39.5639Z" fill="#9D9CB5"/>
<path d="M39.3852 129.068L39.2607 130.984H20.7976L20.6709 129.068H39.3852Z" fill="#9D9CB5"/>
<path d="M39.2064 131.783L39.082 133.697H20.9763L20.8496 131.783H39.2064Z" fill="#9D9CB5"/>
<path d="M18.3272 106.26C26.5871 111.896 30.035 120.712 30.035 120.712C30.035 120.712 20.0806 120.39 11.8184 114.753C3.55629 109.116 0.115234 100.303 0.115234 100.303C0.115234 100.303 10.0651 100.623 18.3272 106.26Z" fill="#84AFD7"/>
<path d="M0.108398 100.303C0.108398 100.303 10.4429 105.711 13.7572 110.19C17.0716 114.668 30.0349 120.712 30.0349 120.712" stroke="#535461" stroke-width="2" stroke-miterlimit="10"/>
<path d="M23.6598 94.9051C28.1551 97.971 30.0351 102.769 30.0351 102.769C30.0351 102.769 24.6167 102.594 20.1192 99.5284C15.6216 96.4626 13.7461 91.6621 13.7461 91.6621C13.7461 91.6621 19.1622 91.8371 23.6598 94.9051Z" fill="#84AFD7"/>
<path d="M13.7461 91.6621C13.7461 91.6621 19.3703 94.6064 21.1734 97.0429C22.9765 99.4794 30.0351 102.769 30.0351 102.769" stroke="#535461" stroke-width="2" stroke-miterlimit="10"/>
<path d="M36.5624 102.527C31.3974 107.88 30.3047 114.876 30.3047 114.876C30.3047 114.876 37.5872 113.19 42.7477 107.835C47.9081 102.48 49.0054 95.4863 49.0054 95.4863C49.0054 95.4863 41.7274 97.174 36.5624 102.527Z" fill="#84AFD7"/>
<path d="M49.0099 95.4883C49.0099 95.4883 42.2816 100.976 40.5713 104.756C38.8609 108.537 30.3047 114.876 30.3047 114.876" stroke="#535461" stroke-width="2" stroke-miterlimit="10"/>
<path d="M226.161 100.642C226.161 100.642 222.426 83.1175 223.856 80.937C223.856 80.937 223.908 78.9102 223.822 76.3265C223.822 76.2284 223.822 76.1302 223.822 76.0299C224.073 76.1881 224.336 76.3306 224.607 76.4566C225.924 77.0949 227.437 77.279 228.883 76.9772L227.752 75.7888C227.48 75.5051 227.197 75.1979 227.139 74.8224C227.08 74.4468 227.243 74.1119 227.383 73.7769C228.458 71.2167 228.514 67.9972 226.444 66.0429C224.695 64.4001 224.27 62.2793 222.372 60.7795C220.985 59.6807 220.223 58.0699 219.503 56.5124C218.895 55.196 218.281 53.8689 217.933 52.4736C217.662 51.3834 217.553 50.2547 217.18 49.1901C216.806 48.1255 216.107 47.0907 215.015 46.6149C214.625 46.4464 214.193 46.3504 213.838 46.1264C213.372 45.8298 213.092 45.3476 212.754 44.9252C211.042 42.7917 205.307 44.0483 202.592 44.9145C201.854 45.1327 201.17 45.4898 200.583 45.9642L200.608 45.9258C200.628 45.8938 200.653 45.8618 200.676 45.8298C200.379 46.0564 200.122 46.3265 199.916 46.6299C199.52 47.2209 199.354 47.91 199.024 48.5501C198.626 49.3075 196.411 51.4218 197.364 52.2731C197.43 52.3302 197.507 52.3764 197.59 52.4096C197.947 52.5499 198.341 52.5871 198.721 52.5163L198.68 52.608C198.355 53.3591 198.188 54.1628 198.189 54.9741C198.189 58.4795 201.255 61.3214 205.04 61.3214C205.751 61.322 206.459 61.2191 207.137 61.0163C207.153 61.0973 207.166 61.1784 207.182 61.2595C207.182 61.2915 207.194 61.3235 207.198 61.3555L207.078 61.5134C207.072 61.5037 207.065 61.4944 207.058 61.4857L203.506 66.1666C202.963 66.5272 199.836 68.6607 199.66 70.2609C199.474 72.0125 199.289 74.0628 199.289 74.0628L199.264 74.5023C199.109 74.6246 198.927 74.7138 198.732 74.7635C198.537 74.8132 198.332 74.8224 198.133 74.7903C197.024 74.6197 197.024 78.6307 197.024 78.6307C197.024 78.6307 196.287 79.2708 195.78 78.716C195.273 78.1613 193.934 80.041 193.934 80.041L185.541 80.3823L185.348 80.393L184.896 79.0723C184.847 78.933 184.742 78.8175 184.604 78.7508C184.465 78.6841 184.304 78.6716 184.156 78.716C184.121 78.7269 184.087 78.7405 184.054 78.7566L184.022 78.7737L183.964 78.8121L183.934 78.8377C183.918 78.8515 183.903 78.8665 183.889 78.8825L183.862 78.9123L183.848 78.9251C183.796 78.9932 183.761 79.072 183.747 79.155C183.733 79.238 183.74 79.3229 183.767 79.403L184.156 80.5359C182.536 80.8432 180.88 81.7094 182.231 84.0947L175.385 82.902L177.6 84.6558L189.034 86.8811C188.882 87.1371 188.982 87.5083 189.454 88.031C191.491 90.2862 195.201 90.8985 196.694 91.0564C197.088 91.8882 197.581 92.6755 198.162 93.4033L198.033 95.6499C198.033 95.6499 194.253 112.774 193.561 113.642C193.91 113.269 194.23 112.871 194.518 112.454C193.42 115.972 191.886 120.787 191.484 121.508C190.837 122.66 190.237 127.322 190.975 127.621C191.201 127.713 191.848 127.668 192.771 127.602V127.988L192.73 142.622C192.73 142.622 192.916 151.597 192.407 152.453C191.898 153.309 191.762 155.103 191.762 155.103C191.762 155.103 189.726 158.642 188.113 160.065C188.102 160.077 188.09 160.087 188.077 160.095L188.027 159.762C188.027 159.762 186.088 162.071 181.799 161.941C181.799 161.941 179.217 163.524 183.045 163.609C186.873 163.695 191.762 163.481 191.762 163.481C191.762 163.481 195.176 158.574 198.036 159.214V162.933H198.911V159.154C199.317 158.902 199.665 158.575 199.933 158.193C200.201 157.81 200.383 157.38 200.47 156.929C200.545 156.464 200.49 155.989 200.311 155.55C200.131 155.111 199.834 154.724 199.447 154.427C199.274 154.279 199.134 154.098 199.038 153.897C198.942 153.696 198.891 153.478 198.888 153.257L198.857 153.283C198.857 153.208 198.836 153.131 198.827 153.053C198.576 151.132 198.262 147.17 199.373 144.239C200.895 140.219 201.357 134.621 200.248 131.288C199.89 130.223 199.597 129.14 199.368 128.043C199.341 127.905 199.316 127.772 199.293 127.649C200.051 127.745 200.802 127.888 201.54 128.075C204.108 128.743 209.725 128.867 214.521 128.831C214.533 128.954 214.546 129.084 214.562 129.215C214.648 130.119 214.826 131.014 215.096 131.886C215.698 133.593 215.974 141.118 215.974 141.118C215.974 141.118 216.75 147.305 216.327 149.822C216.1 151.222 215.874 152.628 215.745 154.04V154.068C215.745 154.068 214.474 157.482 213.544 159.336C213.521 159.383 213.497 159.43 213.474 159.474C213.226 159.496 212.982 159.547 212.748 159.626C212.748 159.626 211.501 161.973 210.259 162.361C209.017 162.749 209.429 164.027 212.241 163.558C215.053 163.089 219.299 162.705 219.299 162.705L219.483 160.311L220.347 159.291L220.121 161.678L221.041 161.508L220.919 158.604L222.333 156.936C222.333 156.936 224.041 155.502 221.503 152.681V152.743C221.476 152.703 221.451 152.66 221.422 152.619V152.607C221.001 151.992 220.666 150.846 221.279 148.813C222.388 145.139 223.032 141.805 223.032 141.805C223.032 141.805 225.507 132.871 222.532 128.645H222.664C222.359 128.05 222.143 127.418 222.023 126.767C222.008 126.691 221.995 126.612 221.983 126.531C224.184 126.411 226.344 126.036 228.107 125.225C228.1 125.216 227.039 104.018 226.161 100.642ZM198.214 85.857V85.8996L197.762 85.921L198.214 85.857ZM196.662 86.0597C196.588 86.0752 196.518 86.1066 196.459 86.1514C196.264 86.411 196.142 86.7125 196.103 87.0283L195.398 86.8789C195.398 86.8789 194.902 86.7787 194.19 86.6656L193.852 86.3456C194.78 86.273 195.744 86.1663 196.662 86.0597Z" fill="url(#paint1_linear_430_2248)"/>
<path d="M220.017 158.634L219.748 161.657L220.651 161.486L220.515 158.207L220.017 158.634Z" fill="#1D2366"/>
<path d="M199.423 144.28C198.335 147.203 198.642 151.148 198.887 153.064C198.977 153.772 199.061 154.203 199.061 154.203C199.061 154.203 197.434 157.698 197.299 157.83C197.163 157.963 192.512 160.64 192.512 160.64L189.26 162.43C189.26 162.43 185.962 161.067 187.543 160.598C187.866 160.475 188.157 160.288 188.396 160.049C189.98 158.631 191.969 155.104 191.969 155.104C191.969 155.104 192.104 153.314 192.602 152.462C193.1 151.611 192.919 142.665 192.919 142.665L192.957 128.083V126.182L199.145 126.224C199.184 126.87 199.273 127.511 199.412 128.144C199.634 129.237 199.922 130.317 200.274 131.379C201.364 134.705 200.912 140.276 199.423 144.28Z" fill="#FFB0B1"/>
<path opacity="0.1" d="M199.061 154.203C199.061 154.203 197.434 157.698 197.299 157.83C197.163 157.963 192.512 160.64 192.512 160.64L189.26 162.43C189.26 162.43 185.962 161.067 187.543 160.598C187.866 160.475 188.157 160.288 188.396 160.049L188.537 160.982L189.62 160.939L198.896 153.068C198.977 153.772 199.061 154.203 199.061 154.203Z" fill="black"/>
<path d="M198.948 153.266L189.62 161.19L188.536 161.232L188.31 159.739C188.31 159.739 186.414 162.039 182.202 161.911C182.202 161.911 179.672 163.487 183.421 163.573C187.17 163.658 191.957 163.445 191.957 163.445C191.957 163.445 195.301 158.538 198.099 159.178V162.884H198.959V159.144C199.359 158.89 199.7 158.562 199.962 158.181C200.224 157.8 200.401 157.372 200.484 156.925C200.558 156.463 200.506 155.992 200.331 155.555C200.156 155.119 199.865 154.732 199.486 154.433C199.317 154.283 199.182 154.102 199.089 153.902C198.996 153.701 198.948 153.484 198.948 153.266Z" fill="#1D2366"/>
<path d="M220.877 148.836C220.275 150.863 220.603 152.005 221.015 152.617V152.63C221.543 153.386 221.91 154.231 222.096 155.12L222.132 155.312L217.888 161.147L215.585 162C215.585 162 211.882 160.808 212.558 160.466C212.728 160.383 212.992 159.939 213.296 159.327C214.201 157.481 215.449 154.076 215.449 154.076V154.049C215.581 152.643 215.789 151.241 216.02 149.846C216.434 147.334 215.673 141.171 215.673 141.171C215.673 141.171 215.402 133.675 214.814 131.971C214.548 131.104 214.372 130.215 214.287 129.317C214.164 128.25 214.137 127.371 214.137 127.371C214.137 127.371 216.576 124.171 221.047 127.627C221.404 127.903 221.719 128.224 221.981 128.583C225.069 132.726 222.583 141.853 222.583 141.853C222.583 141.853 221.96 145.173 220.877 148.836Z" fill="#FFB0B1"/>
<path opacity="0.1" d="M222.139 155.312L217.895 161.147L215.592 162.001C215.592 162.001 211.889 160.808 212.565 160.467C212.735 160.384 212.999 159.94 213.302 159.328C214.87 159.315 215.683 160.723 215.683 160.723L217.669 160.424C217.669 160.424 220.289 155.568 220.877 155.272C221.465 154.975 220.967 153.055 220.967 153.055V152.566C220.983 152.583 220.997 152.603 221.015 152.62V152.633C221.543 153.389 221.91 154.234 222.096 155.122L222.139 155.312Z" fill="black"/>
<path d="M215.818 160.848C215.818 160.848 214.687 158.889 212.519 159.613C212.519 159.613 211.3 161.96 210.08 162.339C208.861 162.719 209.268 163.999 212.024 163.532C214.779 163.065 218.933 162.679 218.933 162.679L219.114 160.291L221.915 156.927C221.915 156.927 223.584 155.499 221.1 152.689V153.178C221.1 153.178 221.598 155.098 221.01 155.395C220.422 155.691 217.811 160.549 217.811 160.549L215.818 160.848Z" fill="#1D2366"/>
<path opacity="0.1" d="M199.151 126.22C199.19 126.866 199.28 127.508 199.418 128.141C196.871 127.789 194.507 127.963 192.957 128.079V126.178L199.151 126.22Z" fill="black"/>
<path opacity="0.1" d="M222.232 129.114C222.232 129.114 218.612 129.281 214.296 129.315C214.174 128.248 214.146 127.369 214.146 127.369C214.146 127.369 216.585 124.169 221.056 127.625C221.413 127.901 221.728 128.222 221.99 128.581C222.06 128.763 222.141 128.941 222.232 129.114Z" fill="black"/>
<path d="M222.232 128.731C222.232 128.731 206.378 129.454 201.545 128.176C196.713 126.898 191.923 128.006 191.202 127.709C190.48 127.413 191.066 122.768 191.699 121.618C192.333 120.468 195.808 108.838 195.808 108.838L199.152 92.3971L202.674 91.4818L202.923 91.4156L209.061 89.8197L213.558 88.6484C213.558 88.6484 222.501 121.575 221.735 124.003C221.456 124.933 221.411 125.911 221.603 126.86C221.72 127.508 221.932 128.138 222.232 128.731Z" fill="#1D2366"/>
<path d="M187.496 81.1523C187.496 81.1523 184.328 84.3526 186.726 86.1363C189.125 87.9199 190.701 86.307 190.701 86.307L187.496 81.1523Z" fill="#C7DAF5"/>
<path opacity="0.1" d="M187.496 81.1523C187.496 81.1523 184.328 84.3526 186.726 86.1363C189.125 87.9199 190.701 86.307 190.701 86.307L187.496 81.1523Z" fill="black"/>
<path d="M213.085 60.1128C213.085 60.1128 212.714 60.4456 212.156 60.9363C211.359 61.6382 210.18 62.6645 209.135 63.5243C207.687 64.7127 206.493 65.5853 206.92 64.8407C207.348 64.0961 207.267 62.7989 207.054 61.5849C207.038 61.5038 207.024 61.4228 207.009 61.3438C206.833 60.4522 206.599 59.5716 206.31 58.7068C206.31 58.7068 208.649 55.8564 209.943 54.732C210.425 54.3053 210.762 54.1303 210.782 54.4269C210.805 54.8259 211.122 55.707 211.515 56.6415C211.527 56.6714 211.538 56.6991 211.551 56.729C211.814 57.369 212.11 58.0262 212.37 58.5937C212.769 59.4642 213.085 60.1128 213.085 60.1128Z" fill="#FFB0B1"/>
<path opacity="0.1" d="M211.551 56.7284C211.332 57.8435 210.798 58.8824 210.007 59.7366C209.216 60.5908 208.196 61.229 207.054 61.5843C206.874 60.6104 206.625 59.6489 206.31 58.7062C206.31 58.7062 210.714 53.3404 210.782 54.4264C210.798 54.8381 211.142 55.7513 211.551 56.7284Z" fill="black"/>
<path opacity="0.1" d="M206.615 63.0172L207.185 62.2598C207.185 62.2598 207.563 64.4317 208.952 63.4737C210.341 62.5158 210.409 70.6829 210.409 70.6829L208.918 91.7046L198.145 91.0966L198.45 80.9388L199.669 75.8184L202.685 68.3745L204.479 65.9145L206.615 63.0172Z" fill="black"/>
<path d="M210.409 70.8147L209.051 89.8223L208.909 91.8364L202.902 91.4972L202.676 91.4844L198.151 91.2283L198.457 81.0685L199.676 75.948L202.692 68.5041L204.486 66.0441L206.622 63.1361L207.192 62.3809C207.192 62.3809 207.57 64.5528 208.959 63.5948L208.988 63.5756C210.346 62.7649 210.409 70.8147 210.409 70.8147Z" fill="#1D2366"/>
<path d="M199.827 74.168C199.827 74.168 199.287 75.2347 198.201 75.0619C197.115 74.8891 197.117 78.9023 197.117 78.9023C197.117 78.9023 196.395 79.5423 195.898 78.9876C195.4 78.4329 194.088 80.3083 194.088 80.3083L185.866 80.6496C185.866 80.6496 189.524 82.2263 188.807 86.9969C188.807 86.9969 201.228 86.2715 201.635 85.1642C202.042 84.0569 199.827 74.168 199.827 74.168Z" fill="white"/>
<path opacity="0.03" d="M199.827 74.168C199.827 74.168 199.287 75.2347 198.201 75.0619C197.115 74.8891 197.117 78.9023 197.117 78.9023C197.117 78.9023 196.395 79.5423 195.898 78.9876C195.4 78.4329 194.088 80.3083 194.088 80.3083L185.866 80.6496C185.866 80.6496 189.524 82.2263 188.807 86.9969C188.807 86.9969 201.228 86.2715 201.635 85.1642C202.042 84.0569 199.827 74.168 199.827 74.168Z" fill="black"/>
<path d="M175.935 83.1562L178.102 84.9015L195.943 88.4367L193.73 86.3075L175.935 83.1562Z" fill="white"/>
<path d="M206.648 63.6902C206.352 64.1169 205.503 66.3016 204.795 68.209C204.205 69.7985 203.712 71.1959 203.712 71.1959C203.712 71.1959 202.56 78.2664 201.972 79.5444C201.384 80.8224 201.703 85.8063 201.703 85.8063L199.51 98.1147C199.51 98.1147 198.517 104.462 196.983 108.253C195.47 111.985 193.784 113.734 193.732 113.79C194.411 112.924 198.11 95.8681 198.11 95.8681L199.332 74.3578C199.332 74.3578 199.51 72.3139 199.691 70.5665C199.872 68.8192 203.537 66.4339 203.537 66.4339L207.071 61.6953C207.427 62.1434 207.189 62.9242 206.648 63.6902Z" fill="white"/>
<path d="M197.434 91.3336C197.434 91.3336 192.231 91.1203 189.711 88.2656C187.19 85.4109 195.536 87.1263 195.536 87.1263L197.706 87.5957L197.434 91.3336Z" fill="#FFB0B1"/>
<path opacity="0.1" d="M221.734 124.005C221.456 124.934 221.411 125.913 221.603 126.862C215.927 127.241 209.855 125.795 209.855 125.795C208.723 126.776 205.744 128.223 205.744 128.223L204.119 109.234C203.081 106.674 202.674 93.2606 202.674 93.2606C202.674 93.2606 202.767 92.5586 202.9 91.5068C202.9 91.4812 202.9 91.4535 202.911 91.4279C203.316 88.49 204.119 82.9748 204.513 82.2302C205.056 81.2061 202.844 78.4816 202.844 78.4816L203.85 70.3848L203.972 69.4077C206.095 68.5137 207.721 65.6591 207.721 65.6591L208.97 63.596C210.327 62.7745 210.398 70.8244 210.398 70.8244L209.04 89.832L213.538 88.6607C213.538 88.6607 222.501 121.577 221.734 124.005Z" fill="black"/>
<path d="M227.56 125.318C221.372 128.215 210.126 125.531 210.126 125.531C208.995 126.513 206.015 127.959 206.015 127.959L204.389 108.971C203.353 106.411 202.945 92.9971 202.945 92.9971C202.945 92.9971 204.253 82.9887 204.796 81.9668C204.954 81.6681 204.877 81.2243 204.69 80.7464C203.766 78.4717 203.427 76.0233 203.699 73.6012L204.133 70.1214L204.253 69.1464C206.377 68.2503 208.004 65.3956 208.004 65.3956L209.135 63.5267L211.217 60.0831L212.203 58.4531L212.37 58.5961L213.649 59.6884C213.649 59.6884 214.192 60.1151 215.006 60.7552C216.777 62.1633 219.838 64.6425 221.417 66.1594C222.807 67.495 223.245 72.6902 223.372 76.6009C223.456 79.1761 223.406 81.1944 223.406 81.1944C222.006 83.3685 225.668 100.823 225.668 100.823C226.521 104.196 227.56 125.318 227.56 125.318Z" fill="white"/>
<path opacity="0.03" d="M215.682 65.3517C215.682 65.3517 211.436 72.9748 211.929 75.8722C212.422 78.7695 213.825 82.0487 213.148 82.8147C212.916 83.1048 212.615 83.3404 212.27 83.5029C211.925 83.6654 211.545 83.7504 211.16 83.7513C210.481 83.794 208.671 84.9866 208.671 85.1146C208.671 85.2426 206.999 85.2426 205.504 85.84C204.008 86.4374 201.8 86.7766 201.8 86.7766C201.8 86.7766 197.502 86.6486 197.101 87.0327C196.701 87.4167 196.289 89.7145 197.146 91.5472C198.004 93.3799 198.956 94.7475 199.676 94.9971C200.395 95.2467 204.961 93.8045 208.664 93.4631C212.368 93.1218 216.388 90.3546 216.388 90.3546C216.388 90.3546 220.815 88.8611 221.591 86.3499C222.367 83.8388 220.643 70.0369 220.643 70.0369C220.643 70.0369 219.34 63.6043 215.682 65.3517Z" fill="black"/>
<path opacity="0.03" d="M215.139 64.7124C215.139 64.7124 210.893 72.3377 211.391 75.2329C211.888 78.1281 213.286 81.4095 212.608 82.1775C212.376 82.468 212.076 82.7039 211.731 82.8664C211.387 83.0289 211.007 83.1137 210.621 83.1142C209.943 83.1568 208.133 84.3495 208.133 84.4775C208.133 84.6055 206.461 84.6055 204.965 85.2007C203.47 85.796 201.262 86.1374 201.262 86.1374C201.262 86.1374 196.963 86.0094 196.565 86.3934C196.167 86.7774 195.751 89.0774 196.611 90.9079C197.47 92.7385 198.42 94.1082 199.14 94.3579C199.859 94.6075 204.425 93.1652 208.128 92.826C211.832 92.4867 215.852 89.7153 215.852 89.7153C215.852 89.7153 220.277 88.2218 221.044 85.7128C221.811 83.2038 220.096 69.3977 220.096 69.3977C220.096 69.3977 218.798 62.9672 215.139 64.7124Z" fill="black"/>
<path d="M215.549 64.9679C215.549 64.9679 211.302 72.5931 211.8 75.4883C212.298 78.3835 213.696 81.6649 213.019 82.4308C212.788 82.722 212.487 82.9584 212.142 83.1213C211.797 83.2843 211.417 83.3693 211.031 83.3696C210.352 83.4123 208.542 84.6049 208.542 84.7308C208.542 84.8567 206.872 84.8588 205.375 85.4562C203.877 86.0536 201.671 86.3928 201.671 86.3928C201.671 86.3928 197.373 86.2648 196.972 86.6488C196.572 87.0329 196.16 89.3328 197.018 91.1634C197.875 92.994 198.827 94.3637 199.547 94.6133C200.266 94.8629 204.832 93.4207 208.535 93.0793C212.239 92.7379 216.259 89.9707 216.259 89.9707C216.259 89.9707 220.686 88.4773 221.462 85.9661C222.238 83.4549 220.526 69.6531 220.526 69.6531C220.526 69.6531 219.205 63.2312 215.549 64.9679Z" fill="white"/>
<path opacity="0.1" d="M215.456 85.4209C215.456 85.4209 212.063 84.7808 213.244 85.8476C214.425 86.9144 214.418 87.8489 215.864 87.8062C217.309 87.7635 215.456 85.4209 215.456 85.4209Z" fill="black"/>
<path opacity="0.1" d="M221.191 108.373C221.191 108.373 219.657 109.352 222.591 111.61C225.525 113.867 221.191 108.373 221.191 108.373Z" fill="black"/>
<path opacity="0.1" d="M218.263 116.422C218.263 116.55 217.72 121.116 219.752 122.257C221.783 123.399 218.263 116.422 218.263 116.422Z" fill="black"/>
<path d="M186.007 80.6387C184.369 80.692 180.831 81.1635 182.666 84.3916C184.288 87.2484 187.014 85.3388 188.548 83.8902C188.174 82.5395 187.264 81.3757 186.007 80.6387Z" fill="#FFB0B1"/>
<path opacity="0.1" d="M215.006 60.8845C213.268 62.0046 211.811 62.9497 211.526 63.146C210.748 63.6901 209.264 66.884 208.307 68.514C207.544 69.8261 205.067 70.1632 204.133 70.2464L204.253 69.2714C206.377 68.3753 208.004 65.5206 208.004 65.5206L212.203 58.5781L213.648 59.8177C213.648 59.8177 214.191 60.2444 215.006 60.8845Z" fill="black"/>
<path d="M215.006 60.7575C213.268 61.8776 211.811 62.8228 211.526 63.0212C210.748 63.5631 209.264 66.757 208.307 68.387C207.544 69.6991 205.067 70.0362 204.133 70.1195L204.253 69.1444C206.377 68.2483 208.004 65.3937 208.004 65.3937L212.203 58.4512L213.648 59.6865C213.648 59.6865 214.191 60.1089 215.006 60.7575Z" fill="#DCE7FF"/>
<path d="M211.662 55.3211C211.662 56.6018 211.251 57.8526 210.481 58.9076C209.571 60.1549 208.218 61.0535 206.666 61.4402C205.114 61.827 203.466 61.6763 202.022 61.0155C200.578 60.3548 199.433 59.2277 198.795 57.8388C198.156 56.4499 198.067 54.8912 198.543 53.4456C199.019 51.9999 200.029 50.7631 201.389 49.9595C202.749 49.1559 204.37 48.8387 205.957 49.0656C207.544 49.2925 208.992 50.0484 210.039 51.1961C211.086 52.3439 211.661 53.8074 211.662 55.3211Z" fill="#FFB0B1"/>
<path opacity="0.1" d="M223.372 76.6031C222.454 76.0701 221.705 75.3121 221.207 74.4098C220.83 73.7058 220.578 72.8929 219.934 72.3936C219.352 71.9456 218.576 71.8368 217.852 71.6362C215.472 70.9727 213.477 68.9245 213.402 66.5862C213.366 65.4853 213.73 64.3865 213.565 63.2963C213.471 62.6792 213.211 62.0952 212.809 61.6001C212.61 61.3633 212.391 61.1415 212.156 60.9366C211.839 60.655 211.506 60.3819 211.217 60.0832C211.034 59.8982 210.875 59.6942 210.742 59.4751C210.634 59.2958 210.547 59.1063 210.481 58.9097C210.029 57.604 210.441 56.0551 209.943 54.7344L209.916 54.6619C209.728 54.1925 209.346 53.7231 208.814 53.6868C208.282 53.6506 207.828 54.0666 207.321 54.2522C206.26 54.6405 205.115 53.9791 204.231 53.3049C203.346 52.6307 202.348 51.8605 201.224 52.0099C200.48 52.1102 199.891 52.5881 199.206 52.8356C199.051 52.8921 198.891 52.9356 198.729 52.9657C199.309 51.6013 200.374 50.4701 201.743 49.7663C203.111 49.0625 204.697 48.8301 206.227 49.1091C207.758 49.3881 209.138 50.1609 210.129 51.2949C211.121 52.4289 211.663 53.8533 211.662 55.3233C211.663 55.7671 211.614 56.2099 211.515 56.6439C211.527 56.6738 211.538 56.7015 211.552 56.7314C211.814 57.3715 212.11 58.0286 212.371 58.5961L213.649 59.6885C213.649 59.6885 214.192 60.1152 215.006 60.7552C216.778 62.1634 219.839 64.6425 221.418 66.1595C222.807 67.4993 223.241 72.6923 223.372 76.6031Z" fill="black"/>
<path d="M199.126 48.9365C199.45 48.3157 199.611 47.6202 199.997 47.0313C200.565 46.1779 201.556 45.6317 202.574 45.301C205.233 44.4369 210.85 43.1824 212.529 45.301C212.859 45.7277 213.133 46.2014 213.59 46.4958C213.938 46.7198 214.359 46.8158 214.741 46.9844C215.811 47.458 216.495 48.4906 216.859 49.5446C217.223 50.5986 217.332 51.7293 217.599 52.8153C217.94 54.2085 218.54 55.5292 219.137 56.8413C219.841 58.3902 220.587 59.9968 221.945 61.0913C223.797 62.5847 224.207 64.6991 225.926 66.3376C227.962 68.2834 227.897 71.4944 226.847 74.0439C226.709 74.3789 226.553 74.7288 226.607 75.0851C226.662 75.4414 226.942 75.7657 227.207 76.0495L228.32 77.2336C225.687 77.8331 222.707 76.5359 221.481 74.2594C221.103 73.5554 220.852 72.7446 220.205 72.2432C219.626 71.7952 218.847 71.6885 218.126 71.488C215.746 70.8223 213.75 68.772 213.676 66.4336C213.639 65.3349 214.004 64.2361 213.839 63.148C213.747 62.5268 213.486 61.9387 213.081 61.4412C212.459 60.6752 211.52 60.161 211.013 59.3076C210.155 57.8803 210.807 56.0263 210.189 54.4944C209.999 54.025 209.619 53.5556 209.088 53.5194C208.556 53.4831 208.101 53.8991 207.592 54.0848C206.533 54.4731 205.389 53.8138 204.504 53.1375C203.619 52.4611 202.622 51.6931 201.495 51.8445C200.751 51.9427 200.165 52.4206 199.479 52.6702C198.973 52.8537 197.945 53.018 197.502 52.6148C196.565 51.8019 198.735 49.6961 199.126 48.9365Z" fill="#591D4B"/>
<path opacity="0.1" d="M222.11 73.5562C221.73 72.8522 221.481 72.0414 220.834 71.5422C220.255 71.0941 219.476 70.9853 218.752 70.7848C216.375 70.1212 214.379 68.0709 214.302 65.7326C214.266 64.6338 214.63 63.5329 214.467 62.4448C214.373 61.8276 214.112 61.2436 213.71 60.7486C213.085 59.9827 212.146 59.4685 211.642 58.6151C210.784 57.1899 211.436 55.3359 210.816 53.8019C210.628 53.3346 210.246 52.8652 209.716 52.8268C209.187 52.7884 208.728 53.2087 208.221 53.3944C207.162 53.7827 206.015 53.1213 205.133 52.4471C204.251 51.7729 203.248 51.0027 202.124 51.152C201.38 51.2523 200.791 51.7302 200.108 51.9777C199.601 52.1612 198.572 52.3276 198.129 51.9244C197.197 51.0709 199.366 48.9694 199.755 48.2141C200.079 47.5911 200.239 46.8978 200.629 46.3089C200.649 46.2769 200.672 46.2449 200.694 46.2129C200.403 46.4403 200.152 46.7096 199.95 47.0108C199.563 47.5997 199.402 48.2909 199.079 48.9161C198.687 49.6713 196.518 51.7793 197.452 52.6263C197.905 53.0317 198.923 52.8652 199.43 52.6818C200.108 52.4321 200.701 51.9542 201.445 51.8561C202.576 51.7046 203.572 52.4748 204.454 53.149C205.337 53.8232 206.49 54.4846 207.545 54.0963C208.051 53.9107 208.495 53.4925 209.038 53.5309C209.581 53.5693 209.943 54.0365 210.14 54.5059C210.757 56.0378 210.106 57.8918 210.963 59.3192C211.47 60.1576 212.409 60.6825 213.031 61.4527C213.436 61.9503 213.697 62.5384 213.789 63.1595C213.954 64.2476 213.59 65.3464 213.626 66.4452C213.701 68.792 215.696 70.8338 218.076 71.4995C218.793 71.7 219.576 71.8067 220.155 72.2548C220.804 72.7561 221.06 73.5669 221.431 74.271C222.657 76.5474 225.637 77.8446 228.27 77.2451L227.745 76.6861C225.463 76.7181 223.153 75.4935 222.11 73.5562Z" fill="black"/>
<path opacity="0.1" d="M206.513 63.8189C206.217 64.2456 205.368 66.4304 204.66 68.3377C203.997 68.0945 203.396 66.5434 203.396 66.5434L206.929 61.8027C207.291 62.2721 207.054 63.0509 206.513 63.8189Z" fill="black"/>
<path d="M206.649 63.6898C206.352 64.1165 205.504 66.3013 204.796 68.2087C204.133 67.9676 203.531 66.4144 203.531 66.4144L207.065 61.6758C207.427 62.143 207.189 62.9239 206.649 63.6898Z" fill="#DCE7FF"/>
<path d="M186.102 85.4856L184.143 79.6589C184.12 79.5907 184.111 79.5188 184.117 79.4474C184.124 79.376 184.145 79.3065 184.18 79.2429C184.215 79.1793 184.262 79.1228 184.321 79.0766C184.379 79.0305 184.446 78.9956 184.518 78.974C184.664 78.9311 184.822 78.9442 184.958 79.0106C185.093 79.0769 185.196 79.1911 185.242 79.3282L187.201 85.1485L187.007 86.3667L186.102 85.4856Z" fill="#BE8B87"/>
<path opacity="0.1" d="M184.328 79.1481C184.474 79.1045 184.632 79.1173 184.769 79.1837C184.905 79.2501 185.007 79.3646 185.054 79.5023L187.013 85.3225L186.866 86.2357L187.009 86.3765L187.203 85.1582L185.233 79.338C185.186 79.2008 185.084 79.0867 184.948 79.0203C184.813 78.954 184.655 78.9409 184.509 78.9838C184.386 79.0213 184.28 79.0964 184.208 79.1972C184.246 79.1777 184.287 79.1613 184.328 79.1481Z" fill="white"/>
<path d="M186.102 85.4868L187.201 85.1582L187.04 86.1567L187.007 86.3764L186.685 86.0607L186.102 85.4868Z" fill="#EFC8C4"/>
<path d="M186.686 86.0602C186.705 86.0374 186.729 86.0185 186.756 86.0047C186.772 85.9953 186.79 85.9902 186.809 85.9902C186.828 85.9902 186.846 85.9953 186.862 86.0047C186.877 86.0223 186.89 86.0417 186.9 86.0624C186.915 86.0859 186.936 86.106 186.96 86.1211C186.984 86.1363 187.012 86.1461 187.041 86.1498L187.007 86.3632L186.686 86.0602Z" fill="#727A9C"/>
<path d="M184.131 81.7285C184.131 81.7285 188.061 81.7072 187.135 83.2839C186.21 84.8605 184.764 85.0504 184.764 85.0504L184.131 81.7285Z" fill="#FFB0B1"/>
<path d="M159.691 10.9707H159.522C152.771 10.9707 146.8 14.3395 143.366 19.3107C139.932 14.3395 133.962 10.9707 127.211 10.9707H127.041C121.975 11.0162 117.132 12.9455 113.566 16.3393C109.999 19.733 107.997 24.317 107.994 29.095C107.994 35.0284 110.75 43.4473 116.123 50.3749C126.36 63.575 143.366 75.1238 143.366 75.1238C143.366 75.1238 160.372 63.5772 170.607 50.3749C175.983 43.4473 178.736 35.0284 178.736 29.095C178.733 24.3174 176.731 19.7337 173.165 16.34C169.599 12.9463 164.757 11.0168 159.691 10.9707ZM157.264 51.3904C156.495 51.3877 155.745 51.1657 155.112 50.7538C154.48 50.3418 153.994 49.759 153.719 49.082H149.683C149.417 49.0804 149.158 49.0006 148.943 48.8537C148.728 48.7069 148.566 48.5002 148.481 48.2627L147.242 44.7402L143.319 57.6673C143.242 57.9161 143.082 58.1349 142.863 58.2907C142.643 58.4465 142.376 58.531 142.101 58.5314H142.022C141.736 58.5183 141.462 58.4129 141.248 58.2327C141.034 58.0525 140.892 57.8085 140.846 57.5414L136.803 34.6102L133.848 48.1795C133.781 48.4373 133.623 48.6662 133.401 48.8298C133.18 48.9934 132.906 49.0821 132.624 49.082H126.939C126.769 49.0888 126.599 49.063 126.439 49.0062C126.279 48.9494 126.134 48.8627 126.011 48.7514C125.887 48.64 125.789 48.5064 125.722 48.3584C125.656 48.2105 125.621 48.0513 125.621 47.8904C125.621 47.7295 125.656 47.5703 125.722 47.4224C125.789 47.2744 125.887 47.1407 126.011 47.0294C126.134 46.9181 126.279 46.8314 126.439 46.7746C126.599 46.7178 126.769 46.692 126.939 46.6988H131.629L135.814 28.455C135.883 28.1853 136.049 27.9464 136.284 27.7793C136.519 27.6121 136.808 27.5271 137.101 27.5387C137.395 27.5503 137.676 27.6578 137.895 27.8428C138.114 28.0279 138.258 28.2789 138.303 28.5531L142.432 51.9452L145.948 40.3793C146.021 40.1357 146.175 39.921 146.389 39.7672C146.602 39.6134 146.862 39.5287 147.131 39.5259H147.156C147.421 39.526 147.681 39.6052 147.896 39.7523C148.111 39.8994 148.272 40.1069 148.355 40.3452L150.597 46.7052H153.669C153.887 46.0794 154.285 45.5226 154.818 45.0964C155.35 44.6702 155.998 44.391 156.688 44.2898C157.379 44.1886 158.085 44.2693 158.73 44.5229C159.375 44.7764 159.933 45.1931 160.342 45.7269C160.752 46.2607 160.997 46.8908 161.051 47.5477C161.105 48.2046 160.965 48.8628 160.647 49.4496C160.33 50.0364 159.846 50.5289 159.25 50.8729C158.654 51.2169 157.969 51.399 157.271 51.399L157.264 51.3904Z" fill="#84AFD7"/>
</g>
<defs>
<linearGradient id="paint0_linear_430_2248" x1="80.6146" y1="165.32" x2="80.6146" y2="34.0354" gradientUnits="userSpaceOnUse">
<stop stop-color="#808080" stop-opacity="0.25"/>
<stop offset="0.54" stop-color="#808080" stop-opacity="0.12"/>
<stop offset="1" stop-color="#808080" stop-opacity="0.1"/>
</linearGradient>
<linearGradient id="paint1_linear_430_2248" x1="202.126" y1="163.66" x2="202.126" y2="43.756" gradientUnits="userSpaceOnUse">
<stop stop-color="#808080" stop-opacity="0.25"/>
<stop offset="0.54" stop-color="#808080" stop-opacity="0.12"/>
<stop offset="1" stop-color="#808080" stop-opacity="0.1"/>
</linearGradient>
<clipPath id="clip0_430_2248">
<rect width="250" height="167" fill="white"/>
</clipPath>
</defs>
</svg>
