<svg width="269" height="150" viewBox="0 0 269 150" fill="none" xmlns="http://www.w3.org/2000/svg">
<g clip-path="url(#clip0_423_1989)">
<path d="M257.86 143.96C250.031 150.153 239.884 150.464 230.076 149.703C228.706 149.597 227.346 149.472 225.999 149.338C225.991 149.336 225.98 149.336 225.972 149.334C225.907 149.327 225.842 149.321 225.78 149.317C225.502 149.288 225.224 149.259 224.949 149.231L225.014 149.367L225.218 149.79C225.145 149.648 225.071 149.51 224.998 149.368C224.976 149.326 224.952 149.283 224.931 149.241C222.39 144.387 219.87 139.354 219.227 133.811C218.563 128.057 220.43 121.542 225.042 118.715C225.647 118.345 226.287 118.05 226.952 117.836C227.228 117.744 227.507 117.67 227.79 117.604C229.52 117.182 231.321 117.274 233.007 117.869C234.694 118.465 236.206 119.543 237.387 120.993C238.569 122.443 239.377 124.212 239.729 126.119C240.081 128.025 239.965 130.001 239.391 131.841C243.301 127.439 242.572 120.297 241.223 114.329C239.872 108.361 238.235 101.719 240.984 96.3584C242.512 93.3745 245.199 91.5232 248.215 90.7774C248.307 90.7555 248.4 90.7336 248.492 90.7147C252.085 89.9157 255.821 90.6342 258.952 92.7268C264.718 96.7161 267.68 104.28 268.641 111.689C270.189 123.612 266.762 136.918 257.86 143.96Z" fill="#F2F2F2"/>
<path d="M255.332 124.848C255.105 127.478 254.53 130.058 253.624 132.505C252.79 134.671 251.665 136.688 250.288 138.489C247.474 142.206 243.753 145 239.711 146.862C236.621 148.251 233.384 149.206 230.076 149.704C228.706 149.598 227.346 149.474 225.999 149.339C225.991 149.337 225.98 149.338 225.972 149.336C225.907 149.329 225.842 149.322 225.781 149.318C225.502 149.289 225.224 149.261 224.949 149.232L225.014 149.369L225.218 149.792C225.145 149.65 225.071 149.511 224.998 149.37C224.976 149.327 224.952 149.285 224.931 149.242C227.411 146.529 229.262 143.203 230.331 139.543C231.399 135.883 231.652 131.994 231.07 128.204C230.46 124.441 229.049 120.889 226.952 117.838C227.228 117.746 227.507 117.671 227.79 117.605C228.587 118.802 229.286 120.073 229.88 121.405C232.008 126.154 232.687 131.529 231.816 136.735C231.006 141.445 228.99 145.805 226.002 149.301C226.264 149.281 226.528 149.257 226.786 149.231C231.682 148.776 236.568 147.62 241.009 145.253C244.804 143.279 248.1 140.311 250.604 136.609C253.294 132.537 254.479 127.639 254.682 122.66C254.898 117.331 254.268 111.907 253.16 106.724C252.029 101.411 250.31 96.2688 248.041 91.4137C247.99 91.3036 247.98 91.1763 248.012 91.0581C248.045 90.94 248.117 90.84 248.215 90.7788C248.296 90.7186 248.396 90.6961 248.493 90.7161C248.54 90.7298 248.584 90.7551 248.621 90.7899C248.658 90.8248 248.687 90.8684 248.707 90.9175C248.987 91.5173 249.261 92.1174 249.526 92.7243C251.726 97.7793 253.346 103.115 254.349 108.608C255.322 113.908 255.842 119.452 255.332 124.848Z" fill="white"/>
<path d="M153.098 146.697C157.097 149.861 162.281 150.019 167.291 149.631C167.99 149.577 168.685 149.513 169.373 149.444C169.377 149.443 169.383 149.444 169.387 149.442C169.42 149.439 169.453 149.436 169.485 149.433C169.627 149.419 169.769 149.404 169.91 149.39L169.876 149.459L169.772 149.675C169.81 149.603 169.847 149.532 169.885 149.46C169.896 149.438 169.908 149.417 169.919 149.395C171.217 146.915 172.504 144.344 172.832 141.513C173.172 138.574 172.218 135.246 169.862 133.801C169.553 133.612 169.226 133.462 168.886 133.353C168.746 133.306 168.603 133.268 168.458 133.234C167.575 133.019 166.655 133.065 165.793 133.37C164.932 133.674 164.159 134.225 163.556 134.965C162.952 135.706 162.539 136.61 162.36 137.584C162.18 138.558 162.239 139.567 162.532 140.507C160.535 138.258 160.907 134.61 161.596 131.561C162.287 128.512 163.123 125.12 161.718 122.381C161.321 121.647 160.786 121.013 160.15 120.522C159.513 120.03 158.789 119.693 158.025 119.53C157.978 119.519 157.93 119.508 157.883 119.498C156.048 119.09 154.14 119.457 152.54 120.526C149.595 122.564 148.082 126.428 147.591 130.213C146.8 136.303 148.551 143.1 153.098 146.697Z" fill="#F2F2F2"/>
<path d="M154.389 136.933C154.505 138.277 154.799 139.594 155.262 140.845C155.688 141.951 156.262 142.981 156.966 143.901C158.429 145.781 160.282 147.248 162.369 148.178C163.947 148.888 165.601 149.376 167.291 149.63C167.99 149.576 168.685 149.512 169.373 149.444C169.377 149.443 169.383 149.443 169.387 149.442C169.42 149.438 169.453 149.435 169.485 149.433C169.627 149.418 169.769 149.404 169.91 149.389L169.877 149.459L169.772 149.675C169.81 149.602 169.847 149.532 169.885 149.459C169.896 149.438 169.908 149.416 169.919 149.394C168.652 148.008 167.706 146.309 167.161 144.44C166.615 142.57 166.486 140.584 166.783 138.647C167.094 136.725 167.815 134.911 168.887 133.352C168.746 133.305 168.603 133.267 168.458 133.233C168.051 133.844 167.694 134.494 167.391 135.174C166.304 137.6 165.957 140.346 166.402 143.005C166.816 145.411 167.846 147.638 169.372 149.424C169.238 149.414 169.103 149.402 168.971 149.389C166.457 149.206 163.994 148.517 161.706 147.357C159.767 146.348 158.084 144.832 156.805 142.941C155.431 140.861 154.825 138.359 154.721 135.816C154.641 133.076 154.903 130.337 155.499 127.675C156.077 124.961 156.955 122.334 158.114 119.854C158.14 119.798 158.145 119.733 158.128 119.672C158.112 119.612 158.075 119.561 158.025 119.53C157.983 119.499 157.932 119.488 157.883 119.498C157.859 119.505 157.837 119.518 157.818 119.535C157.799 119.553 157.784 119.576 157.774 119.601C157.631 119.907 157.491 120.214 157.356 120.524C156.231 123.106 155.404 125.831 154.892 128.638C154.347 131.36 154.177 134.156 154.389 136.933Z" fill="white"/>
<path d="M46.4549 4.11328H4.81545C3.53887 4.11526 2.31509 4.67291 1.41241 5.66397C0.509725 6.65503 0.00180591 7.99863 0 9.4002V81.24C0.00180665 82.6416 0.509725 83.9852 1.41241 84.9762C2.31509 85.9673 3.53887 86.525 4.81545 86.5269H46.4549C47.7315 86.5249 48.9553 85.9673 49.858 84.9762C50.7607 83.9852 51.2686 82.6416 51.2704 81.24V9.4002C51.2686 7.99863 50.7607 6.65503 49.858 5.66398C48.9553 4.67292 47.7315 4.11526 46.4549 4.11328ZM50.7039 81.24C50.7025 82.4768 50.2544 83.6624 49.4579 84.537C48.6613 85.4115 47.5814 85.9034 46.4549 85.9049H4.81545C3.68899 85.9034 2.60905 85.4115 1.81252 84.537C1.01599 83.6624 0.567894 82.4768 0.566524 81.24V9.4002C0.567894 8.16344 1.01599 6.97777 1.81252 6.10326C2.60905 5.22874 3.68899 4.73678 4.81545 4.73527H46.4549C47.5814 4.73678 48.6613 5.22874 49.4579 6.10326C50.2544 6.97777 50.7025 8.16344 50.7039 9.4002V81.24Z" fill="#3F3D56"/>
<path d="M135.682 86.5269H94.043C92.7663 86.5254 91.5423 85.9678 90.6395 84.9767C89.7368 83.9855 89.229 82.6417 89.2275 81.24V9.4002C89.229 7.9985 89.7368 6.65467 90.6395 5.66352C91.5423 4.67238 92.7663 4.11486 94.043 4.11328H135.682C136.959 4.11486 138.183 4.67238 139.086 5.66352C139.989 6.65467 140.497 7.9985 140.498 9.4002V81.24C140.497 82.6417 139.989 83.9855 139.086 84.9767C138.183 85.9678 136.959 86.5254 135.682 86.5269ZM94.043 4.73527C92.9165 4.73667 91.8365 5.2286 91.04 6.10314C90.2434 6.97768 89.7953 8.16341 89.7941 9.4002V81.24C89.7953 82.4768 90.2434 83.6625 91.04 84.5371C91.8365 85.4116 92.9165 85.9035 94.043 85.9049H135.682C136.809 85.9035 137.889 85.4116 138.686 84.5371C139.482 83.6625 139.93 82.4768 139.931 81.24V9.4002C139.93 8.16341 139.482 6.97768 138.686 6.10314C137.889 5.2286 136.809 4.73667 135.682 4.73527H94.043Z" fill="#3F3D56"/>
<path d="M75.9138 45.7861H58.6348C58.5597 45.7861 58.4877 45.7533 58.4345 45.695C58.3814 45.6366 58.3516 45.5575 58.3516 45.4751C58.3516 45.3926 58.3814 45.3135 58.4345 45.2551C58.4877 45.1968 58.5597 45.1641 58.6348 45.1641H75.9138C75.9889 45.1641 76.061 45.1968 76.1141 45.2551C76.1672 45.3135 76.1971 45.3926 76.1971 45.4751C76.1971 45.5575 76.1672 45.6366 76.1141 45.695C76.061 45.7533 75.9889 45.7861 75.9138 45.7861Z" fill="#3F3D56"/>
<path d="M72.2317 54.3151C72.1724 54.3151 72.1146 54.2947 72.0664 54.2568C72.0182 54.2189 71.9821 54.1653 71.9632 54.1036C71.9442 54.042 71.9433 53.9753 71.9606 53.9131C71.978 53.8508 72.0127 53.7961 72.0598 53.7567L81.0742 46.2169C81.1783 46.1298 81.2626 46.0176 81.3207 45.8889C81.3788 45.7601 81.409 45.6184 81.409 45.4748C81.409 45.3311 81.3788 45.1894 81.3207 45.0607C81.2626 44.932 81.1783 44.8197 81.0742 44.7327L72.0598 37.1929C72.0002 37.1429 71.9611 37.0689 71.951 36.9872C71.941 36.9055 71.961 36.8228 72.0064 36.7573C72.0519 36.6917 72.1193 36.6487 72.1936 36.6376C72.268 36.6265 72.3434 36.6483 72.4031 36.6981L81.4175 44.238C81.591 44.383 81.7316 44.5701 81.8284 44.7847C81.9252 44.9992 81.9755 45.2354 81.9755 45.4748C81.9755 45.7142 81.9252 45.9504 81.8284 46.1649C81.7316 46.3795 81.591 46.5666 81.4175 46.7116L72.4031 54.2514C72.3539 54.2928 72.2936 54.3151 72.2317 54.3151Z" fill="#3F3D56"/>
<path d="M164.858 45.7861H147.579C147.504 45.7861 147.432 45.7533 147.379 45.695C147.326 45.6366 147.296 45.5575 147.296 45.4751C147.296 45.3926 147.326 45.3135 147.379 45.2551C147.432 45.1968 147.504 45.1641 147.579 45.1641H164.858C164.933 45.1641 165.005 45.1968 165.058 45.2551C165.112 45.3135 165.141 45.3926 165.141 45.4751C165.141 45.5575 165.112 45.6366 165.058 45.695C165.005 45.7533 164.933 45.7861 164.858 45.7861Z" fill="#3F3D56"/>
<path d="M161.176 54.3151C161.117 54.3151 161.059 54.2947 161.011 54.2568C160.963 54.2189 160.926 54.1653 160.907 54.1036C160.889 54.042 160.888 53.9753 160.905 53.9131C160.922 53.8508 160.957 53.7961 161.004 53.7567L170.019 46.2169C170.123 46.1298 170.207 46.0176 170.265 45.8889C170.323 45.7601 170.353 45.6184 170.353 45.4748C170.353 45.3311 170.323 45.1894 170.265 45.0607C170.207 44.932 170.123 44.8197 170.019 44.7327L161.004 37.1929C160.945 37.1429 160.905 37.0689 160.895 36.9872C160.885 36.9055 160.905 36.8228 160.951 36.7573C160.996 36.6917 161.064 36.6487 161.138 36.6376C161.212 36.6265 161.288 36.6483 161.347 36.6981L170.362 44.238C170.535 44.383 170.676 44.5701 170.773 44.7847C170.87 44.9992 170.92 45.2354 170.92 45.4748C170.92 45.7142 170.87 45.9504 170.773 46.1649C170.676 46.3795 170.535 46.5666 170.362 46.7116L161.347 54.2514C161.298 54.2928 161.238 54.3151 161.176 54.3151Z" fill="#3F3D56"/>
<path d="M119.962 33.1908H110.047C109.409 33.19 108.797 32.9113 108.346 32.4157C107.894 31.9201 107.64 31.2482 107.64 30.5474V19.9735C107.64 19.2727 107.894 18.6008 108.346 18.1052C108.797 17.6096 109.409 17.3309 110.047 17.3301H119.962C120.6 17.3309 121.212 17.6096 121.663 18.1052C122.115 18.6008 122.369 19.2727 122.369 19.9735V30.5474C122.369 31.2482 122.115 31.9201 121.663 32.4157C121.212 32.9113 120.6 33.19 119.962 33.1908Z" fill="#84AFD7"/>
<path d="M121.803 33.0341C121.765 33.0342 121.729 33.0261 121.694 33.0105C121.66 32.9949 121.629 32.9719 121.602 32.943L108.006 18.0152C107.98 17.9863 107.959 17.9521 107.944 17.9143C107.93 17.8766 107.923 17.8362 107.923 17.7953C107.923 17.7545 107.93 17.7141 107.944 17.6763C107.959 17.6386 107.98 17.6043 108.006 17.5754C108.032 17.5466 108.063 17.5237 108.098 17.508C108.132 17.4924 108.169 17.4844 108.206 17.4844C108.243 17.4844 108.28 17.4924 108.314 17.508C108.349 17.5237 108.38 17.5466 108.406 17.5755L122.003 32.5032C122.043 32.5467 122.07 32.6021 122.08 32.6624C122.091 32.7228 122.086 32.7853 122.064 32.8421C122.043 32.8989 122.007 32.9475 121.96 32.9816C121.913 33.0158 121.859 33.0341 121.803 33.0341Z" fill="white"/>
<path d="M108.206 33.0341C108.15 33.0341 108.095 33.0158 108.049 32.9816C108.002 32.9475 107.966 32.8989 107.944 32.8421C107.923 32.7853 107.917 32.7228 107.928 32.6624C107.939 32.6021 107.966 32.5467 108.006 32.5032L121.602 17.5755C121.629 17.5466 121.66 17.5237 121.694 17.508C121.729 17.4924 121.765 17.4844 121.803 17.4844C121.84 17.4844 121.877 17.4924 121.911 17.508C121.945 17.5237 121.977 17.5466 122.003 17.5754C122.029 17.6043 122.05 17.6386 122.064 17.6763C122.079 17.7141 122.086 17.7545 122.086 17.7953C122.086 17.8362 122.079 17.8766 122.064 17.9143C122.05 17.9521 122.029 17.9863 122.003 18.0152L108.406 32.943C108.38 32.9719 108.349 32.9948 108.314 33.0105C108.28 33.0261 108.243 33.0341 108.206 33.0341Z" fill="white"/>
<path d="M124.069 49.5171H105.657C104.718 49.5171 103.817 49.1075 103.153 48.3784C102.489 47.6494 102.116 46.6606 102.116 45.6296C102.116 44.5986 102.489 43.6098 103.153 42.8808C103.817 42.1518 104.718 41.7422 105.657 41.7422H124.069C125.008 41.7422 125.909 42.1518 126.573 42.8808C127.237 43.6098 127.61 44.5986 127.61 45.6296C127.61 46.6606 127.237 47.6494 126.573 48.3784C125.909 49.1075 125.008 49.5171 124.069 49.5171ZM105.657 42.3642C104.868 42.3642 104.112 42.7082 103.554 43.3206C102.996 43.933 102.683 44.7636 102.683 45.6296C102.683 46.4957 102.996 47.3263 103.554 47.9386C104.112 48.551 104.868 48.8951 105.657 48.8951H124.069C124.858 48.8951 125.614 48.551 126.172 47.9386C126.73 47.3263 127.043 46.4957 127.043 45.6296C127.043 44.7636 126.73 43.933 126.172 43.3206C125.614 42.7082 124.858 42.3642 124.069 42.3642H105.657Z" fill="#3F3D56"/>
<path d="M124.069 61.3354H105.657C104.718 61.3354 103.817 60.9258 103.153 60.1968C102.489 59.4678 102.116 58.479 102.116 57.448C102.116 56.417 102.489 55.4282 103.153 54.6992C103.817 53.9701 104.718 53.5605 105.657 53.5605H124.069C125.008 53.5605 125.909 53.9701 126.573 54.6992C127.237 55.4282 127.61 56.417 127.61 57.448C127.61 58.479 127.237 59.4678 126.573 60.1968C125.909 60.9258 125.008 61.3354 124.069 61.3354ZM105.657 54.1825C104.868 54.1825 104.112 54.5266 103.554 55.139C102.996 55.7514 102.683 56.5819 102.683 57.448C102.683 58.314 102.996 59.1446 103.554 59.757C104.112 60.3694 104.868 60.7134 105.657 60.7134H124.069C124.858 60.7134 125.614 60.3694 126.172 59.757C126.73 59.1446 127.043 58.314 127.043 57.448C127.043 56.5819 126.73 55.7514 126.172 55.139C125.614 54.5266 124.858 54.1825 124.069 54.1825H105.657Z" fill="#3F3D56"/>
<path d="M124.069 73.1538H105.657C104.718 73.1538 103.817 72.7442 103.153 72.0152C102.489 71.2861 102.116 70.2974 102.116 69.2663C102.116 68.2353 102.489 67.2465 103.153 66.5175C103.817 65.7885 104.718 65.3789 105.657 65.3789H124.069C125.008 65.3789 125.909 65.7885 126.573 66.5175C127.237 67.2465 127.61 68.2353 127.61 69.2663C127.61 70.2974 127.237 71.2861 126.573 72.0152C125.909 72.7442 125.008 73.1538 124.069 73.1538ZM105.657 66.0009C104.868 66.0009 104.112 66.3449 103.554 66.9573C102.996 67.5697 102.683 68.4003 102.683 69.2663C102.683 70.1324 102.996 70.963 103.554 71.5754C104.112 72.1878 104.868 72.5318 105.657 72.5318H124.069C124.858 72.5318 125.614 72.1878 126.172 71.5754C126.73 70.963 127.043 70.1324 127.043 69.2663C127.043 68.4003 126.73 67.5697 126.172 66.9573C125.614 66.3449 124.858 66.0009 124.069 66.0009H105.657Z" fill="#3F3D56"/>
<path d="M221.18 0.0721972L180.102 7.55715C178.843 7.78858 177.719 8.55869 176.976 9.69865C176.234 10.8386 175.933 12.2554 176.14 13.6383L186.853 84.5087C187.064 85.8911 187.766 87.1252 188.804 87.9407C189.842 88.7561 191.133 89.0862 192.392 88.8587L233.47 81.3737C234.729 81.1423 235.853 80.3722 236.596 79.2323C237.338 78.0923 237.639 76.6755 237.432 75.2926L226.719 4.42216C226.508 3.03983 225.806 1.80567 224.768 0.990248C223.73 0.174825 222.439 -0.155319 221.18 0.0721972ZM236.873 75.3944C237.056 76.6147 236.791 77.8649 236.135 78.8708C235.48 79.8767 234.488 80.5562 233.377 80.7602L192.299 88.2451C191.188 88.4461 190.049 88.1549 189.133 87.4354C188.217 86.7158 187.598 85.6267 187.412 84.4069L176.699 13.5365C176.516 12.3162 176.781 11.066 177.437 10.0601C178.092 9.05418 179.084 8.37473 180.195 8.17075L221.273 0.685797C222.384 0.484792 223.523 0.775994 224.439 1.49553C225.355 2.21506 225.974 3.30419 226.16 4.524L236.873 75.3944Z" fill="#3F3D56"/>
<path d="M213.943 29.1322L195.78 32.4419C194.853 32.6107 193.904 32.3685 193.14 31.7687C192.376 31.1689 191.861 30.2605 191.707 29.2434C191.553 28.2263 191.774 27.1838 192.32 26.3452C192.866 25.5067 193.694 24.9407 194.62 24.7719L212.784 21.4622C213.71 21.2941 214.659 21.5366 215.422 22.1365C216.186 22.7364 216.701 23.6444 216.854 24.6611C217.008 25.6778 216.788 26.7199 216.242 27.5583C215.696 28.3967 214.869 28.9628 213.943 29.1322ZM194.713 25.3855C193.935 25.5275 193.24 26.0029 192.781 26.7073C192.323 27.4116 192.137 28.2872 192.267 29.1414C192.396 29.9956 192.829 30.7586 193.47 31.2625C194.111 31.7663 194.909 31.9699 195.687 31.8283L213.85 28.5186C214.629 28.3766 215.323 27.9012 215.782 27.1969C216.241 26.4925 216.426 25.6169 216.297 24.7627C216.168 23.9085 215.735 23.1455 215.094 22.6417C214.452 22.1378 213.655 21.9343 212.877 22.0758L194.713 25.3855Z" fill="#CCCCCC"/>
<path d="M216.077 43.2459L197.914 46.5555C197.455 46.6395 196.985 46.6233 196.532 46.508C196.079 46.3927 195.651 46.1804 195.273 45.8834C194.894 45.5864 194.573 45.2105 194.327 44.7771C194.081 44.3436 193.915 43.8612 193.839 43.3574C193.763 42.8536 193.778 42.3383 193.883 41.8408C193.988 41.3434 194.182 40.8736 194.453 40.4583C194.723 40.043 195.066 39.6904 195.461 39.4205C195.856 39.1507 196.295 38.9689 196.754 38.8856L214.918 35.5759C215.844 35.4071 216.794 35.6493 217.557 36.2491C218.321 36.8489 218.837 37.7573 218.99 38.7744C219.144 39.7915 218.924 40.834 218.377 41.6726C217.831 42.5111 217.004 43.0771 216.077 43.2459ZM196.847 39.4992C196.069 39.6413 195.374 40.1168 194.916 40.8211C194.457 41.5254 194.272 42.4008 194.401 43.255C194.53 44.1091 194.963 44.8719 195.604 45.3758C196.246 45.8797 197.043 46.0833 197.821 45.9419L215.984 42.6323C216.762 42.4901 217.457 42.0146 217.916 41.3103C218.374 40.6061 218.559 39.7306 218.43 38.8765C218.301 38.0224 217.868 37.2595 217.227 36.7557C216.586 36.2518 215.788 36.0482 215.01 36.1895L196.847 39.4992Z" fill="#CCCCCC"/>
<path d="M218.21 57.3568L200.046 60.6665C199.588 60.7504 199.118 60.7342 198.665 60.6189C198.212 60.5036 197.784 60.2914 197.405 59.9944C197.027 59.6974 196.706 59.3214 196.46 58.888C196.214 58.4546 196.048 57.9722 195.972 57.4684C195.895 56.9646 195.91 56.4492 196.016 55.9518C196.121 55.4543 196.315 54.9845 196.585 54.5693C196.856 54.154 197.199 53.8013 197.594 53.5315C197.989 53.2616 198.428 53.0798 198.887 52.9965L217.051 49.6869C217.977 49.5187 218.926 49.7612 219.689 50.3611C220.452 50.961 220.967 51.869 221.121 52.8857C221.275 53.9024 221.055 54.9445 220.509 55.7829C219.963 56.6213 219.136 57.1875 218.21 57.3568ZM198.98 53.6101C198.594 53.6802 198.225 53.833 197.894 54.0598C197.562 54.2865 197.274 54.5827 197.047 54.9315C196.82 55.2803 196.657 55.6749 196.569 56.0926C196.481 56.5104 196.468 56.9432 196.532 57.3663C196.596 57.7894 196.735 58.1945 196.942 58.5585C197.148 58.9225 197.418 59.2383 197.736 59.4878C198.054 59.7372 198.413 59.9156 198.794 60.0125C199.174 60.1095 199.568 60.1232 199.954 60.0529L218.117 56.7432C218.503 56.6732 218.872 56.5204 219.203 56.2938C219.535 56.0671 219.823 55.7708 220.05 55.422C220.278 55.0732 220.44 54.6786 220.529 54.2608C220.617 53.843 220.63 53.4101 220.566 52.9869C220.502 52.5638 220.362 52.1586 220.156 51.7946C219.949 51.4305 219.679 51.1147 219.361 50.8652C219.044 50.6158 218.684 50.4375 218.304 50.3406C217.923 50.2437 217.529 50.23 217.143 50.3004L198.98 53.6101Z" fill="#CCCCCC"/>
<path d="M220.344 71.4701L202.18 74.7798C201.721 74.8633 201.252 74.8469 200.799 74.7314C200.346 74.6159 199.919 74.4036 199.54 74.1066C199.162 73.8096 198.841 73.4337 198.595 73.0004C198.349 72.5671 198.183 72.0849 198.107 71.5813C198.031 71.0776 198.046 70.5625 198.151 70.0652C198.257 69.568 198.45 69.0983 198.72 68.6831C198.991 68.2679 199.333 67.9152 199.728 67.6453C200.123 67.3753 200.562 67.1934 201.021 67.1098L219.184 63.8001C220.11 63.632 221.059 63.8745 221.823 64.4744C222.586 65.0742 223.101 65.9823 223.255 66.999C223.408 68.0157 223.188 69.0578 222.642 69.8962C222.096 70.7346 221.27 71.3007 220.344 71.4701ZM201.113 67.7234C200.728 67.7936 200.359 67.9465 200.028 68.1732C199.696 68.4 199.409 68.6962 199.181 69.045C198.722 69.7494 198.537 70.6251 198.666 71.4794C198.795 72.3338 199.228 73.0968 199.87 73.6007C200.512 74.1046 201.309 74.308 202.087 74.1662L220.251 70.8565C221.029 70.7145 221.724 70.2391 222.182 69.5347C222.641 68.8304 222.826 67.9548 222.697 67.1006C222.568 66.2464 222.135 65.4834 221.494 64.9796C220.852 64.4757 220.055 64.2722 219.277 64.4137L201.113 67.7234Z" fill="#CCCCCC"/>
<path d="M227.06 8.58086L177.041 17.6952C177.004 17.702 176.966 17.7008 176.93 17.6917C176.894 17.6825 176.859 17.6656 176.829 17.6418C176.798 17.6181 176.773 17.588 176.753 17.5532C176.733 17.5185 176.72 17.4799 176.714 17.4395C176.708 17.3991 176.709 17.3578 176.717 17.3179C176.726 17.2781 176.741 17.2404 176.763 17.2072C176.785 17.1739 176.812 17.1457 176.844 17.1242C176.876 17.1026 176.911 17.0882 176.948 17.0816L226.967 7.96727C227.004 7.96043 227.042 7.96161 227.078 7.97077C227.115 7.97993 227.149 7.99688 227.179 8.02063C227.21 8.04439 227.235 8.07449 227.255 8.10921C227.275 8.14393 227.288 8.18259 227.294 8.22297C227.3 8.26335 227.299 8.30465 227.291 8.34451C227.282 8.38437 227.267 8.42201 227.245 8.45525C227.223 8.4885 227.196 8.51672 227.164 8.53827C227.132 8.55982 227.097 8.57429 227.06 8.58086Z" fill="#3F3D56"/>
<path d="M182.474 14.0297C183.569 14.0297 184.457 13.0551 184.457 11.8527C184.457 10.6504 183.569 9.67578 182.474 9.67578C181.379 9.67578 180.491 10.6504 180.491 11.8527C180.491 13.0551 181.379 14.0297 182.474 14.0297Z" fill="#84AFD7"/>
<path d="M221.969 3.39498L216.38 4.41333C216.306 4.42653 216.231 4.40699 216.17 4.359C216.109 4.311 216.068 4.23847 216.056 4.15728C216.043 4.0761 216.061 3.99288 216.104 3.92586C216.148 3.85885 216.214 3.8135 216.288 3.79974L221.876 2.78138C221.95 2.76816 222.026 2.78769 222.087 2.83569C222.148 2.88368 222.189 2.95622 222.201 3.03742C222.214 3.11862 222.196 3.20185 222.153 3.26887C222.109 3.33589 222.043 3.38124 221.969 3.39498Z" fill="#3F3D56"/>
<path d="M222.248 5.23676L216.659 6.25512C216.585 6.26831 216.509 6.24877 216.448 6.20078C216.387 6.15279 216.346 6.08025 216.334 5.99906C216.322 5.91788 216.339 5.83466 216.383 5.76765C216.426 5.70063 216.492 5.65528 216.566 5.64152L222.155 4.62316C222.229 4.60997 222.305 4.62951 222.365 4.6775C222.426 4.7255 222.467 4.79803 222.48 4.87922C222.492 4.9604 222.474 5.04362 222.431 5.11063C222.387 5.17765 222.321 5.22301 222.248 5.23676Z" fill="#3F3D56"/>
<path d="M222.526 7.07695L216.937 8.09531C216.9 8.10214 216.863 8.10094 216.826 8.09178C216.79 8.08261 216.756 8.06567 216.725 8.04191C216.695 8.01816 216.669 7.98806 216.649 7.95334C216.63 7.91862 216.616 7.87997 216.61 7.8396C216.604 7.79922 216.605 7.75793 216.614 7.71807C216.622 7.67822 216.638 7.64059 216.66 7.60734C216.681 7.5741 216.709 7.54588 216.74 7.52433C216.772 7.50277 216.807 7.48829 216.844 7.48172L222.433 6.46336C222.47 6.45652 222.507 6.45771 222.544 6.46687C222.58 6.47603 222.614 6.49297 222.645 6.51672C222.675 6.54048 222.701 6.57058 222.721 6.6053C222.74 6.64002 222.754 6.67868 222.76 6.71906C222.766 6.75944 222.765 6.80074 222.756 6.8406C222.748 6.88046 222.732 6.9181 222.71 6.95135C222.689 6.9846 222.661 7.01281 222.63 7.03436C222.598 7.05592 222.563 7.07039 222.526 7.07695Z" fill="#3F3D56"/>
<path d="M36.2578 50.9167H15.0132C14.3748 50.9159 13.7628 50.6371 13.3115 50.1416C12.8601 49.646 12.6062 48.9741 12.6055 48.2732V24.6376C12.6062 23.9367 12.8601 23.2648 13.3115 22.7693C13.7628 22.2737 14.3748 21.9949 15.0132 21.9941H36.2578C36.8962 21.9949 37.5082 22.2737 37.9596 22.7693C38.4109 23.2648 38.6648 23.9367 38.6656 24.6376V48.2732C38.6648 48.9741 38.4109 49.646 37.9596 50.1416C37.5082 50.6371 36.8962 50.9159 36.2578 50.9167Z" fill="#84AFD7"/>
<path d="M34.6999 68.4878H16.2878C15.3488 68.4878 14.4482 68.0782 13.7841 67.3492C13.1201 66.6201 12.7471 65.6313 12.7471 64.6003C12.7471 63.5693 13.1201 62.5805 13.7841 61.8515C14.4482 61.1225 15.3488 60.7129 16.2878 60.7129H34.6999C35.6389 60.7129 36.5395 61.1225 37.2036 61.8515C37.8676 62.5805 38.2406 63.5693 38.2406 64.6003C38.2406 65.6313 37.8676 66.6201 37.2036 67.3492C36.5395 68.0782 35.6389 68.4878 34.6999 68.4878ZM16.2878 61.3349C15.499 61.3349 14.7425 61.6789 14.1847 62.2913C13.627 62.9037 13.3136 63.7343 13.3136 64.6003C13.3136 65.4664 13.627 66.297 14.1847 66.9093C14.7425 67.5217 15.499 67.8658 16.2878 67.8658H34.6999C35.4887 67.8658 36.2452 67.5217 36.803 66.9093C37.3608 66.297 37.6741 65.4664 37.6741 64.6003C37.6741 63.7343 37.3608 62.9037 36.803 62.2913C36.2452 61.6789 35.4887 61.3349 34.6999 61.3349H16.2878Z" fill="#3F3D56"/>
<path d="M38.0983 50.4499C38.0611 50.45 38.0242 50.442 37.9899 50.4263C37.9555 50.4107 37.9243 50.3878 37.898 50.3588L12.9709 22.9913C12.9444 22.9625 12.9232 22.9282 12.9088 22.8903C12.8943 22.8525 12.8868 22.812 12.8867 22.7709C12.8866 22.7299 12.8939 22.6893 12.9081 22.6514C12.9224 22.6135 12.9433 22.5791 12.9697 22.5501C12.9961 22.5211 13.0275 22.4981 13.062 22.4825C13.0966 22.4668 13.1336 22.4589 13.1709 22.459C13.2083 22.4591 13.2452 22.4674 13.2796 22.4832C13.3141 22.4991 13.3453 22.5223 13.3716 22.5515L38.2986 49.9191C38.3382 49.9626 38.3652 50.018 38.3761 50.0783C38.387 50.1386 38.3814 50.2011 38.36 50.258C38.3385 50.3148 38.3022 50.3633 38.2557 50.3975C38.2091 50.4317 38.1543 50.4499 38.0983 50.4499Z" fill="white"/>
<path d="M13.1719 50.4499C13.1159 50.4499 13.0611 50.4317 13.0146 50.3975C12.968 50.3633 12.9317 50.3148 12.9102 50.258C12.8888 50.2011 12.8832 50.1386 12.8941 50.0783C12.905 50.018 12.932 49.9626 12.9716 49.9191L37.8986 22.5515C37.9249 22.5223 37.9561 22.4991 37.9906 22.4832C38.025 22.4674 38.062 22.4591 38.0993 22.459C38.1367 22.4589 38.1737 22.4668 38.2082 22.4825C38.2427 22.4981 38.2741 22.5211 38.3005 22.5501C38.3269 22.5791 38.3479 22.6135 38.3621 22.6514C38.3763 22.6893 38.3836 22.7299 38.3835 22.7709C38.3834 22.8119 38.3759 22.8525 38.3614 22.8903C38.347 22.9281 38.3258 22.9624 38.2993 22.9913L13.3722 50.3588C13.346 50.3877 13.3147 50.4107 13.2804 50.4263C13.246 50.442 13.2091 50.45 13.1719 50.4499Z" fill="white"/>
<path d="M232.006 82.2307C232.137 81.764 232.174 81.2713 232.113 80.7875C232.052 80.3037 231.895 79.8405 231.653 79.4305C231.412 79.0204 231.091 78.6735 230.714 78.4143C230.337 78.155 229.913 77.9897 229.471 77.9299L214.93 59.2754L211.539 63.1849L226.022 81.0713C225.98 81.8923 226.214 82.7018 226.679 83.3465C227.144 83.9911 227.808 84.4261 228.545 84.569C229.283 84.712 230.043 84.5528 230.681 84.1219C231.318 83.6909 231.79 83.018 232.006 82.2307Z" fill="#A0616A"/>
<path d="M219.143 63.2054L213.946 67.376C213.798 67.4946 213.628 67.5769 213.449 67.6172C213.269 67.6575 213.084 67.6548 212.906 67.6094C212.727 67.564 212.56 67.4769 212.415 67.354C212.27 67.2312 212.151 67.0754 212.065 66.8974L209.078 60.6602C208.53 59.8261 208.305 58.787 208.453 57.771C208.601 56.7549 209.11 55.8448 209.868 55.2401C210.626 54.6354 211.572 54.3855 212.498 54.5452C213.424 54.7049 214.254 55.2611 214.807 56.092L219.299 61.0931C219.428 61.2363 219.527 61.4083 219.589 61.5973C219.652 61.7863 219.676 61.9879 219.662 62.1884C219.647 62.3888 219.593 62.5834 219.503 62.7589C219.414 62.9344 219.291 63.0867 219.143 63.2054Z" fill="#84AFD7"/>
<path d="M209.113 50.7435C212.956 50.7435 216.071 47.3237 216.071 43.1052C216.071 38.8866 212.956 35.4668 209.113 35.4668C205.271 35.4668 202.156 38.8866 202.156 43.1052C202.156 47.3237 205.271 50.7435 209.113 50.7435Z" fill="#A0616A"/>
<path d="M212.136 77.5658C212.063 77.5658 211.991 77.5592 211.92 77.546L199.713 75.2901C199.419 75.2363 199.152 75.0709 198.957 74.8227C198.763 74.5744 198.654 74.2592 198.65 73.9319C198.613 70.8657 198.822 63.1255 201.558 57.4878C202.414 55.7256 203.823 54.3646 205.524 53.658C207.226 52.9514 209.103 52.9472 210.806 53.6463C212.51 54.3454 213.925 55.7001 214.787 57.4585C215.649 59.2169 215.9 61.2592 215.493 63.2056C214.578 67.5362 213.878 71.9184 213.397 76.3327C213.36 76.6719 213.211 76.9845 212.979 77.2116C212.747 77.4388 212.447 77.5648 212.136 77.5658Z" fill="#2F2E41"/>
<path d="M186.541 52.4136C186.576 52.5814 186.599 52.752 186.609 52.9237L198.777 60.6308L201.735 58.7614L204.888 63.2933L199.945 67.1613C199.545 67.4738 199.065 67.6356 198.574 67.6225C198.084 67.6094 197.611 67.422 197.226 67.0886L184.678 56.2206C184.112 56.4507 183.496 56.4861 182.911 56.3221C182.325 56.1581 181.8 55.8024 181.403 55.3023C181.007 54.8022 180.759 54.1815 180.691 53.5227C180.624 52.8639 180.741 52.1982 181.027 51.6142C181.313 51.0302 181.754 50.5556 182.291 50.2534C182.828 49.9512 183.437 49.8358 184.036 49.9226C184.634 50.0094 185.194 50.2942 185.642 50.7392C186.09 51.1842 186.403 51.7682 186.541 52.4136Z" fill="#A0616A"/>
<path d="M198.945 59.8621C198.982 59.665 199.056 59.479 199.165 59.3166C199.273 59.1543 199.411 59.0194 199.571 58.9213L205.155 55.4933C205.897 54.8647 206.836 54.5847 207.765 54.7148C208.695 54.8448 209.54 55.3742 210.114 56.187C210.689 56.9997 210.947 58.0295 210.831 59.0505C210.715 60.0715 210.235 61.0004 209.497 61.6336L205.045 66.7094C204.917 66.8543 204.763 66.9674 204.593 67.041C204.423 67.1146 204.24 67.147 204.057 67.136C203.874 67.125 203.695 67.0708 203.533 66.9772C203.371 66.8836 203.229 66.7528 203.117 66.5935L199.185 60.9975C199.073 60.8383 198.993 60.6545 198.952 60.4585C198.91 60.2626 198.908 60.0591 198.945 59.8621Z" fill="#84AFD7"/>
<path d="M193.053 146.072H189.58L188.763 131.413L193.054 131.365L193.053 146.072Z" fill="#A0616A"/>
<path d="M193.939 149.767L182.741 149.767V149.611C182.741 148.983 182.854 148.361 183.073 147.78C183.292 147.199 183.613 146.672 184.018 146.228C184.422 145.783 184.903 145.431 185.432 145.19C185.961 144.95 186.527 144.826 187.1 144.826L193.939 144.826L193.939 149.767Z" fill="#2F2E41"/>
<path d="M226.195 146.072H222.722L221.07 131.365H226.196L226.195 146.072Z" fill="#A0616A"/>
<path d="M227.08 149.767L215.883 149.767V149.611C215.883 148.983 215.996 148.361 216.215 147.78C216.434 147.199 216.755 146.672 217.159 146.228C217.564 145.783 218.045 145.431 218.573 145.19C219.102 144.95 219.669 144.826 220.241 144.826L227.081 144.826L227.08 149.767Z" fill="#2F2E41"/>
<path d="M222.247 138.445C221.983 138.445 221.725 138.354 221.509 138.186C221.293 138.019 221.13 137.782 221.042 137.508L209.975 102.793C209.933 102.66 209.858 102.542 209.76 102.452C209.661 102.362 209.542 102.303 209.415 102.281C209.288 102.26 209.158 102.277 209.04 102.33C208.921 102.383 208.817 102.47 208.74 102.583L197.945 118.386C197.861 118.509 197.802 118.651 197.771 118.801L194.331 135.651C194.269 135.95 194.12 136.219 193.906 136.416C193.691 136.614 193.424 136.728 193.145 136.743L189.025 136.948C188.847 136.958 188.67 136.927 188.504 136.856C188.338 136.785 188.188 136.676 188.063 136.537C187.938 136.398 187.84 136.233 187.777 136.051C187.713 135.868 187.685 135.674 187.694 135.479L188.412 120.099C188.639 115.124 189.807 110.255 191.841 105.802C196.363 95.902 198.98 85.085 199.527 74.0257L199.536 73.8535L212.212 76.0678L214.115 78.9606C214.965 80.2657 215.884 81.5136 216.87 82.6974C219.294 85.5823 220.021 89.4406 220.205 92.1691C220.442 95.5225 220.874 98.8558 221.499 102.149L227.786 136.066C227.833 136.259 227.842 136.46 227.813 136.657C227.783 136.854 227.715 137.041 227.615 137.207C227.514 137.373 227.382 137.513 227.227 137.618C227.073 137.723 226.9 137.791 226.72 137.817L222.41 138.434C222.356 138.442 222.301 138.445 222.247 138.445Z" fill="#2F2E41"/>
<path d="M216.806 37.8025C216.253 35.9632 215.845 34.0753 215.587 32.1594C215.505 31.044 215.765 29.8439 216.505 29.0743C217.89 27.634 220.242 28.32 221.69 29.6831C223.783 31.653 224.827 34.6804 225.221 37.6757C225.616 40.671 225.442 43.7169 225.537 46.7415C225.632 49.7661 226.026 52.8762 227.43 55.4803C228.835 58.0844 231.441 60.0833 234.19 59.8617C235.3 59.7959 236.354 59.3056 237.169 58.476C237.569 58.0583 237.871 57.5413 238.052 56.9685C238.232 56.3956 238.285 55.7837 238.206 55.1838C239.611 57.9462 238.899 61.6902 236.803 63.8617C234.707 66.0333 231.483 66.6472 228.728 65.72C225.972 64.7929 223.705 62.468 222.35 59.6754C220.996 56.8827 220.499 53.6566 220.571 50.4937C220.626 48.0647 221.002 45.6159 220.629 43.2212C220.255 40.8264 218.89 38.3949 216.737 37.8309L216.806 37.8025Z" fill="#2F2E41"/>
<path d="M207.139 40.951C206.772 42.297 205.368 43.1271 204.105 42.8994C202.842 42.6718 201.804 41.5299 201.42 40.1896C201.073 38.8205 201.215 37.3578 201.817 36.0998C202.149 35.3458 202.613 34.671 203.183 34.114C203.752 33.5571 204.416 33.1289 205.136 32.854C205.861 32.5904 206.633 32.5218 207.386 32.654C208.14 32.7863 208.854 33.1154 209.467 33.6138C209.533 33.3114 209.67 33.0336 209.866 32.8089C210.061 32.5843 210.308 32.421 210.58 32.3358C211.128 32.1736 211.707 32.183 212.251 32.3629C213.817 32.8529 215.174 33.937 216.081 35.4222C216.976 36.9029 217.568 38.5791 217.817 40.3353C218.244 42.969 218.087 45.8469 216.739 48.0759C215.392 50.3049 212.636 51.6211 210.4 50.5584C210.26 49.7758 210.591 48.9878 210.973 48.3097C211.355 47.6315 211.808 46.9709 211.955 46.19C212.101 45.409 211.82 44.4537 211.132 44.1983C210.545 43.9804 209.919 44.3334 209.301 44.3761C208.949 44.4003 208.599 44.3227 208.283 44.151C207.968 43.9794 207.7 43.7197 207.505 43.3982C207.31 43.0766 207.195 42.7043 207.172 42.3188C207.15 41.9333 207.22 41.548 207.376 41.2016L207.139 40.951Z" fill="#2F2E41"/>
<path d="M258.282 149.97H150.359C150.284 149.97 150.212 149.937 150.159 149.879C150.106 149.82 150.076 149.741 150.076 149.659C150.076 149.576 150.106 149.497 150.159 149.439C150.212 149.38 150.284 149.348 150.359 149.348H258.282C258.357 149.348 258.429 149.38 258.483 149.439C258.536 149.497 258.565 149.576 258.565 149.659C258.565 149.741 258.536 149.82 258.483 149.879C258.429 149.937 258.357 149.97 258.282 149.97Z" fill="#CCCCCC"/>
</g>
<defs>
<clipPath id="clip0_423_1989">
<rect width="269" height="150" fill="white"/>
</clipPath>
</defs>
</svg>
